<svg width="578" height="572" viewBox="0 0 578 572" fill="none" xmlns="http://www.w3.org/2000/svg">
<path opacity="0.4" d="M550 399L290 248C286.895 246.208 287.406 243.074 291 241L297 238C300.594 235.925 306.884 235.208 310 237L570 388C573.116 389.803 572.594 392.925 569 395L563 398C559.406 400.074 553.105 400.792 550 399Z" fill="#D6D8E5"/>
<path d="M577 386V379L570 381L315 233C311.893 231.197 305.596 231.925 302 234L300 235L293 234V242C293.074 242.622 293.633 242.492 294 243C294.367 243.507 294.433 243.735 295 244L555 395C558.118 396.792 564.404 396.074 568 394L574 391C575.988 389.859 577.011 388.39 577 387V386Z" fill="#2B303F"/>
<path d="M555 387L295 236C291.884 234.208 292.406 231.074 296 229L302 226C305.594 223.925 311.895 223.197 315 225L575 376C578.105 377.792 577.594 380.925 574 383L568 386C564.406 388.042 558.116 388.792 555 387Z" fill="#414854"/>
<path opacity="0.2" d="M551 376L320 242V3.99976L551 138V376Z" fill="#0EDDAB"/>
<path d="M553 375H548V143C547.903 141.782 547.61 140.057 547 139C546.39 137.943 545.005 136.692 544 136L323 8.99987C322.756 8.84196 322.286 8.0501 322 7.99987C321.893 8.27314 321.986 8.70673 322 8.99987V241H317V8.99987C316.924 7.93171 317.52 6.95694 318 5.99987C318.479 5.0428 319.099 4.57663 320 3.99987C320.94 3.5114 321.942 2.94056 323 2.99987C324.058 3.05917 325.12 3.4093 326 3.99987L547 132C548.807 133.144 549.932 135.145 551 137C552.068 138.855 552.915 140.86 553 143V375Z" fill="#414854"/>
<path opacity="0.2" d="M454 126L359 71.9999C356.485 70.5438 354 66.3469 354 62.9999C354 59.6421 356.485 58.5438 359 59.9999L454 114C456.515 115.456 459 119.664 459 123C459 126.336 456.515 127.456 454 126Z" fill="#0EDDAB"/>
<path opacity="0.2" d="M454 149L359 94.9999C356.485 93.5438 354 89.3467 354 85.9999C354 82.6422 356.485 81.5438 359 82.9999L454 137C456.515 138.456 459 142.664 459 146C459 149.358 456.515 150.445 454 149Z" fill="#0EDDAB"/>
<path opacity="0.2" d="M454 172L359 118C356.485 116.555 354 112.347 354 109C354 105.642 356.485 104.544 359 106L454 160C456.515 161.456 459 165.664 459 169C459 172.358 456.515 173.445 454 172Z" fill="#0EDDAB"/>
<path opacity="0.2" d="M454 195L359 141C356.485 139.554 354 135.347 354 132C354 128.641 356.485 127.543 359 129L454 183C456.515 184.456 459 188.663 459 192C459 195.369 456.515 196.445 454 195Z" fill="#0EDDAB"/>
<path opacity="0.2" d="M511 159L480 142C477.519 140.551 475 136.318 475 133C475 129.671 477.519 128.562 480 130L511 147C513.481 148.448 516 152.671 516 156C516 159.329 513.481 160.448 511 159Z" fill="#0EDDAB"/>
<path opacity="0.2" d="M511 182L480 165C477.519 163.552 475 159.317 475 156C475 152.661 477.519 151.563 480 153L511 170C513.481 171.448 516 175.683 516 179C516 182.296 513.481 183.448 511 182Z" fill="#0EDDAB"/>
<path opacity="0.2" d="M511 205L480 188C477.519 186.552 475 182.317 475 179C475 175.662 477.519 174.552 480 176L511 193C513.481 194.448 516 198.683 516 202C516 205.338 513.481 206.448 511 205Z" fill="#0EDDAB"/>
<path opacity="0.2" d="M511 228L480 211C477.519 209.552 475 205.327 475 202C475 198.662 477.519 197.552 480 199L511 216C513.481 217.447 516 221.683 516 225C516 228.338 513.481 229.437 511 228Z" fill="#0EDDAB"/>
<path opacity="0.2" d="M391.437 226.801C400.051 221.839 400.13 205.776 391.614 190.923C383.098 176.071 369.211 168.053 360.597 173.015C351.983 177.977 351.904 194.04 360.42 208.893C368.936 223.745 382.823 231.763 391.437 226.801Z" fill="#0EDDAB"/>
<path opacity="0.2" d="M450.525 259.709C459.13 254.73 459.177 238.666 450.632 223.831C442.086 208.995 428.184 201.005 419.579 205.984C410.975 210.963 410.927 227.026 419.473 241.862C428.018 256.698 441.921 264.688 450.525 259.709Z" fill="#0EDDAB"/>
<path opacity="0.2" d="M510.437 295.801C519.051 290.839 519.13 274.776 510.614 259.923C502.098 245.071 488.211 237.053 479.597 242.015C470.983 246.977 470.904 263.04 479.42 277.893C487.936 292.745 501.823 300.763 510.437 295.801Z" fill="#0EDDAB"/>
<path d="M500 409L227 251C223.166 248.81 220 243.114 220 238V25.9999C220 20.8746 223.166 18.7768 227 20.9999L500 179C503.834 181.19 507 186.886 507 192V404C507.044 409.125 503.877 411.223 500 409Z" fill="#B1B4C4"/>
<path d="M502 412L505 410L504 401L502 412Z" fill="#B1B4C4"/>
<path d="M219 22L222 20L226 22C226 22 221.105 23.021 221 23C220.895 22.979 219 22 219 22Z" fill="#B1B4C4"/>
<path d="M497 410L224 252C220.167 249.815 217 244.113 217 239V28C217 22.8872 220.167 20.7823 224 23L497 181C500.833 183.185 504 188.887 504 194V405C504 410.102 500.833 412.185 497 410Z" fill="#E4E7F2"/>
<path d="M497 410L224 252C220.167 249.815 217 244.112 217 239V28C217 22.8987 220.167 20.7934 224 23L497 181C500.822 183.185 504 188.888 504 194V405C504 410.112 500.822 412.217 497 410Z" fill="#D6D8E5"/>
<path d="M500 398L220 236V28C220 25.8775 221.208 24.9388 223 26L497 185C497.959 185.637 498.431 185.998 499 187C499.569 188.002 499.943 188.849 500 190V398Z" fill="white"/>
<path opacity="0.5" d="M500 398L220 236V28C220 25.8776 221.208 24.9388 223 26L497 185C497.959 185.637 498.431 185.999 499 187C499.57 188.001 499.942 188.849 500 190V398Z" fill="url(#paint0_linear)"/>
<path opacity="0.4" d="M291 535L18 376C14.1554 373.81 14.542 369.562 19 367L202 261C206.381 258.449 213.166 257.777 217 260L490 419C493.834 421.19 493.447 425.438 489 428L306 534C301.564 536.551 294.834 537.223 291 535Z" fill="#D6D8E5"/>
<path d="M297 531L24 372C20.1555 369.81 20.5422 365.563 25 363L208 257C212.381 254.437 219.156 253.777 223 256L496 415C499.845 417.19 499.458 421.437 495 424L312 530C307.564 532.552 300.845 533.223 297 531Z" fill="#B1B4C4"/>
<path d="M21 369V364L27 366L21 369Z" fill="#B1B4C4"/>
<path d="M498 419V414L494 416L497 420L498 419Z" fill="#B1B4C4"/>
<path d="M297 527L24 369C20.1555 366.813 20.5422 362.558 25 360L208 254C212.381 251.442 219.156 251.781 223 254L496 411C499.845 413.186 499.458 417.442 495 420L312 526C307.564 528.558 300.845 529.219 297 527Z" fill="#E4E7F2"/>
<path d="M297 526L24 368C20.1555 365.818 20.5422 361.542 25 359L208 253C212.381 250.447 219.156 249.796 223 252L496 410C499.845 412.182 499.458 416.447 495 419L312 525C307.564 527.553 300.845 528.204 297 526Z" fill="#D6D8E5"/>
<path d="M203 289L190 281C188.884 280.397 188.784 279.691 190 279L202 272C202.627 271.657 203.283 271.029 204 271C204.717 270.972 205.347 270.708 206 271L219 279C220.06 279.603 220.228 280.309 219 281L207 288C206.371 288.343 205.719 288.972 205 289C204.281 289.029 203.655 289.292 203 289V289Z" fill="#2B303F"/>
<path d="M221 300L208 292C206.94 291.408 206.772 290.702 208 290L220 283C220.629 282.657 221.281 282.029 222 282C222.719 281.971 223.345 281.708 224 282L237 290C238.116 290.603 238.217 291.309 237 292L225 299C224.375 299.347 223.718 299.97 223 300C222.282 300.031 221.654 300.293 221 300Z" fill="#2B303F"/>
<path d="M239 310L226 302C224.886 301.397 224.785 300.691 226 300L238 293C238.625 292.653 239.283 292.03 240 292C240.717 291.97 241.347 291.707 242 292L255 300C256.115 300.592 256.226 301.298 255 302L243 309C242.371 309.342 241.717 309.97 241 310C240.283 310.03 239.656 310.287 239 310V310Z" fill="#2B303F"/>
<path d="M257 321L244 313C242.939 312.397 242.771 311.691 244 311L256 304C256.63 303.657 257.28 303.029 258 303C258.72 302.971 259.344 302.708 260 303L273 311C274.061 311.603 274.229 312.309 273 313L261 320C260.37 320.343 259.72 320.971 259 321C258.28 321.029 257.656 321.292 257 321V321Z" fill="#2B303F"/>
<path d="M275 331L262 323C260.884 322.397 260.773 321.691 262 321L274 314C274.629 313.657 275.281 313.029 276 313C276.719 312.971 277.345 312.708 278 313L291 321C292.06 321.603 292.227 322.309 291 323L279 330C278.373 330.343 277.717 330.971 277 331C276.283 331.029 275.653 331.292 275 331V331Z" fill="#2B303F"/>
<path d="M293 342L280 334C278.939 333.397 278.771 332.691 280 332L292 325C292.63 324.657 293.28 324.029 294 324C294.72 323.971 295.344 323.708 296 324L309 332C310.061 332.603 310.229 333.309 309 334L297 341C296.37 341.343 295.72 341.971 295 342C294.28 342.029 293.656 342.292 293 342V342Z" fill="#2B303F"/>
<path d="M311 352L298 344C296.938 343.397 296.771 342.691 298 342L310 335C310.63 334.657 311.28 334.029 312 334C312.72 333.971 313.344 333.708 314 334L327 342C328.062 342.603 328.218 343.309 327 344L315 351C314.374 351.347 313.719 351.97 313 352C312.281 352.031 311.654 352.293 311 352Z" fill="#2B303F"/>
<path d="M329 362L316 354C314.94 353.397 314.784 352.702 316 352L328 345C328.625 344.653 329.282 344.03 330 344C330.718 343.97 331.346 343.707 332 344L345 352C346.116 352.603 346.228 353.298 345 354L333 361C332.376 361.345 331.715 361.968 331 362C330.285 362.032 329.653 362.288 329 362V362Z" fill="#2B303F"/>
<path d="M347 373L334 365C332.938 364.397 332.771 363.691 334 363L346 356C346.628 355.653 347.28 355.031 348 355C348.72 354.97 349.344 354.707 350 355L363 363C364.062 363.592 364.218 364.298 363 365L351 372C350.37 372.343 349.72 372.971 349 373C348.28 373.029 347.656 373.292 347 373V373Z" fill="#2B303F"/>
<path d="M365 383L352 375C350.938 374.397 350.781 373.691 352 373L364 366C364.628 365.657 365.281 365.028 366 365C366.719 364.971 367.345 364.708 368 365L381 373C382.062 373.603 382.23 374.309 381 375L369 382C368.366 382.341 367.723 382.975 367 383C366.278 383.025 365.656 383.297 365 383V383Z" fill="#2B303F"/>
<path d="M383 394L370 386C368.939 385.397 368.771 384.691 370 384L382 377C382.63 376.657 383.28 376.029 384 376C384.72 375.971 385.344 375.708 386 376L399 384C400.061 384.603 400.229 385.309 399 386L387 393C386.37 393.343 385.72 393.971 385 394C384.28 394.029 383.656 394.292 383 394Z" fill="#2B303F"/>
<path d="M401 404L388 396C386.94 395.397 386.773 394.69 388 394L400 387C400.629 386.657 401.281 386.029 402 386C402.719 385.971 403.345 385.708 404 386L417 394C418.116 394.603 418.227 395.31 417 396L405 403C404.368 403.35 403.725 403.971 403 404C402.275 404.029 401.659 404.299 401 404V404Z" fill="#2B303F"/>
<path d="M419 415L406 407C404.884 406.397 404.773 405.702 406 405L418 398C418.628 397.655 419.281 397.031 420 397C420.719 396.97 421.344 396.71 422 397L435 405C436.06 405.603 436.227 406.299 435 407L423 414C422.373 414.347 421.719 414.97 421 415C420.281 415.031 419.655 415.293 419 415V415Z" fill="#2B303F"/>
<path d="M445 430L424 417C422.961 416.398 422.796 415.689 424 415L436 408C436.615 407.653 437.295 407.03 438 407C438.705 406.97 439.357 406.708 440 407L461 420C462.039 420.602 462.193 421.311 461 422L449 429C448.382 429.337 447.703 429.977 447 430C446.297 430.023 445.638 430.296 445 430V430Z" fill="#2B303F"/>
<path d="M212 315L199 307C197.884 306.396 197.772 305.691 199 305L211 298C211.629 297.657 212.281 297.029 213 297C213.719 296.971 214.345 296.708 215 297L228 305C229.06 305.604 229.216 306.309 228 307L216 314C215.372 314.342 214.717 314.973 214 315C213.283 315.027 212.652 315.294 212 315V315Z" fill="#2B303F"/>
<path d="M231 326L218 318C216.939 317.396 216.782 316.692 218 316L230 309C230.628 308.656 231.282 308.029 232 308C232.718 307.971 233.346 307.707 234 308L247 316C248.061 316.604 248.229 317.308 247 318L235 325C234.369 325.346 233.722 325.971 233 326C232.278 326.029 231.657 326.295 231 326V326Z" fill="#2B303F"/>
<path d="M249 336L236 328C234.884 327.397 234.772 326.691 236 326L248 319C248.629 318.657 249.281 318.029 250 318C250.719 317.971 251.345 317.708 252 318L265 326C266.06 326.603 266.216 327.309 265 328L253 335C252.373 335.343 251.717 335.971 251 336C250.283 336.029 249.653 336.292 249 336V336Z" fill="#2B303F"/>
<path d="M267 346L254 338C252.938 337.409 252.77 336.701 254 336L266 329C266.629 328.656 267.28 328.03 268 328C268.72 327.97 269.343 327.71 270 328L283 336C284.062 336.602 284.229 337.299 283 338L271 345C270.374 345.343 269.716 345.97 269 346C268.284 346.03 267.654 346.289 267 346V346Z" fill="#2B303F"/>
<path d="M285 357L272 349C270.94 348.398 270.784 347.7 272 347L284 340C284.625 339.654 285.282 339.03 286 339C286.718 338.97 287.346 338.708 288 339L301 347C302.116 347.591 302.228 348.3 301 349L289 356C288.375 356.34 287.715 356.97 287 357C286.285 357.03 285.653 357.286 285 357Z" fill="#2B303F"/>
<path d="M303 367L290 359C288.938 358.397 288.771 357.69 290 357L302 350C302.63 349.657 303.28 349.029 304 349C304.72 348.972 305.344 348.708 306 349L319 357C320.062 357.603 320.218 358.31 319 359L307 366C306.374 366.346 305.718 366.968 305 367C304.282 367.032 303.656 367.288 303 367Z" fill="#2B303F"/>
<path d="M321 378L308 370C306.939 369.397 306.771 368.691 308 368L320 361C320.628 360.653 321.28 360.031 322 360C322.72 359.97 323.344 359.707 324 360L337 368C338.061 368.592 338.229 369.298 337 370L325 377C324.37 377.343 323.72 377.971 323 378C322.28 378.029 321.656 378.292 321 378Z" fill="#2B303F"/>
<path d="M339 388L326 380C324.939 379.397 324.771 378.691 326 378L338 371C338.628 370.657 339.282 370.029 340 370C340.718 369.971 341.346 369.708 342 370L355 378C356.062 378.603 356.229 379.309 355 380L343 387C342.37 387.343 341.72 387.971 341 388C340.28 388.029 339.656 388.292 339 388Z" fill="#2B303F"/>
<path d="M357 399L344 391C342.884 390.397 342.773 389.691 344 389L356 382C356.629 381.657 357.281 381.029 358 381C358.719 380.971 359.345 380.708 360 381L373 389C374.06 389.603 374.227 390.309 373 391L361 398C360.371 398.343 359.719 398.971 359 399C358.281 399.029 357.655 399.292 357 399V399Z" fill="#2B303F"/>
<path d="M375 409L362 401C360.939 400.408 360.783 399.701 362 399L374 392C374.627 391.658 375.283 391.03 376 391C376.717 390.97 377.345 390.713 378 391L391 399C392.061 399.603 392.228 400.31 391 401L379 408C378.368 408.353 377.726 408.97 377 409C376.274 409.031 375.66 409.298 375 409Z" fill="#2B303F"/>
<path d="M393 419L380 411C378.938 410.397 378.771 409.691 380 409L392 402C392.63 401.657 393.28 401.029 394 401C394.72 400.971 395.344 400.708 396 401L409 409C410.062 409.603 410.218 410.309 409 411L397 418C396.372 418.343 395.718 418.971 395 419C394.282 419.029 393.654 419.292 393 419Z" fill="#2B303F"/>
<path d="M411 430L398 422C396.939 421.397 396.771 420.702 398 420L410 413C410.629 412.655 411.28 412.031 412 412C412.72 411.97 413.343 411.71 414 412L427 420C428.061 420.603 428.229 421.299 427 422L415 429C414.372 429.347 413.72 429.97 413 430C412.28 430.031 411.656 430.293 411 430Z" fill="#2B303F"/>
<path d="M194 305L173 292C171.962 291.398 171.809 290.701 173 290L185 283C185.612 282.653 186.297 282.03 187 282C187.703 281.97 188.36 281.707 189 282L210 295C211.038 295.602 211.202 296.31 210 297L198 304C197.386 304.346 196.704 304.968 196 305C195.296 305.032 194.643 305.288 194 305V305Z" fill="#2B303F"/>
<path d="M445 430L432 422C431.403 421.701 430.67 422 430 422C429.33 422 429.597 421.701 429 422L416 430C414.886 430.6 414.886 431.389 416 432L417 433C417.98 433.545 417.969 434.444 417 435L403 443C401.886 443.611 401.886 444.4 403 445L411 450C411.596 450.296 412.332 450 413 450C413.668 450 414.404 450.296 415 450L428 442L430 441L432 440L434 438L445 432C446.081 431.367 446.058 430.6 445 430Z" fill="#2B303F"/>
<path d="M133 330L120 322C118.884 321.397 118.784 320.69 120 320L132 313C132.627 312.657 133.283 312.029 134 312C134.717 311.971 135.347 311.708 136 312L149 320C150.06 320.603 150.228 321.31 149 322L137 329C136.373 329.346 135.719 329.968 135 330C134.281 330.032 133.657 330.289 133 330V330Z" fill="#2B303F"/>
<path d="M151 340L138 332C136.884 331.397 136.784 330.691 138 330L150 323C150.627 322.657 151.283 322.029 152 322C152.717 321.971 153.347 321.708 154 322L167 330C168.06 330.603 168.228 331.309 167 332L155 339C154.371 339.343 153.719 339.971 153 340C152.281 340.029 151.655 340.292 151 340V340Z" fill="#2B303F"/>
<path d="M169 351L156 343C154.883 342.397 154.772 341.691 156 341L168 334C168.63 333.657 169.281 333.029 170 333C170.72 332.971 171.344 332.708 172 333L185 341C186.061 341.603 186.229 342.309 185 343L173 350C172.375 350.338 171.713 350.971 171 351C170.287 351.029 169.651 351.287 169 351V351Z" fill="#2B303F"/>
<path d="M322 439L309 431C307.885 430.409 307.773 429.7 309 429L321 422C321.628 421.656 322.282 421.03 323 421C323.718 420.97 324.344 420.71 325 421L338 429C339.115 429.602 339.227 430.299 338 431L326 438C325.371 438.338 324.717 438.979 324 439C323.283 439.021 322.649 439.301 322 439V439Z" fill="#2B303F"/>
<path d="M340 450L327 442C325.885 441.397 325.785 440.691 327 440L339 433C339.626 432.657 340.284 432.029 341 432C341.716 431.971 342.347 431.708 343 432L356 440C357.114 440.603 357.226 441.309 356 442L344 449C343.372 449.343 342.718 449.971 342 450C341.282 450.029 340.654 450.292 340 450Z" fill="#2B303F"/>
<path d="M358 460L345 452C343.94 451.397 343.784 450.691 345 450L357 443C357.627 442.657 358.283 442.029 359 442C359.717 441.971 360.347 441.708 361 442L374 450C375.116 450.603 375.228 451.309 374 452L362 459C361.371 459.343 360.719 459.971 360 460C359.281 460.029 358.655 460.292 358 460Z" fill="#2B303F"/>
<path d="M376 470L363 462C361.94 461.397 361.784 460.69 363 460L375 453C375.627 452.657 376.283 452.029 377 452C377.717 451.971 378.347 451.708 379 452L392 460C393.116 460.603 393.227 461.31 392 462L380 469C379.365 469.35 378.727 469.971 378 470C377.273 470.029 376.661 470.299 376 470V470Z" fill="#2B303F"/>
<path d="M191 363L174 353C172.961 352.417 172.796 350.668 174 350L186 344C186.617 343.668 187.295 343.028 188 343C188.705 342.972 189.358 342.718 190 343L207 353C208.094 353.583 208.204 355.322 207 356L195 362C194.385 362.336 193.705 362.971 193 363C192.295 363.029 191.643 363.283 191 363Z" fill="#2B303F"/>
<path d="M304 428L287 418C285.905 417.417 285.807 415.668 287 415L299 409C299.615 408.668 300.297 408.028 301 408C301.704 407.972 302.359 407.718 303 408L320 418C321.04 418.583 321.193 420.321 320 421L308 427C307.387 427.336 306.704 427.97 306 428C305.296 428.029 304.641 428.283 304 428Z" fill="#2B303F"/>
<path d="M281 415L197 366C195.963 365.403 195.811 364.683 197 364L209 357C209.613 356.661 210.299 356.028 211 356C211.701 355.972 212.361 355.711 213 356L297 405C298.037 405.597 298.2 406.317 297 407L285 414C284.382 414.334 283.703 414.977 283 415C282.297 415.023 281.638 415.294 281 415V415Z" fill="#2B303F"/>
<path d="M200 328L187 320C185.941 319.397 185.773 318.691 187 318L199 311C199.627 310.657 200.283 310.029 201 310C201.717 309.971 202.347 309.708 203 310L216 318C217.115 318.603 217.227 319.31 216 320L204 327C203.369 327.347 202.723 327.971 202 328C201.277 328.029 200.658 328.296 200 328Z" fill="#2B303F"/>
<path d="M218 338L205 330C203.94 329.397 203.784 328.702 205 328L217 321C217.626 320.655 218.283 320.03 219 320C219.717 319.97 220.346 319.71 221 320L234 328C235.116 328.603 235.228 329.298 234 330L222 337C221.373 337.347 220.719 337.97 220 338C219.281 338.03 218.656 338.293 218 338V338Z" fill="#2B303F"/>
<path d="M236 349L223 341C221.886 340.397 221.774 339.691 223 339L235 332C235.628 331.657 236.282 331.029 237 331C237.718 330.971 238.346 330.708 239 331L252 339C253.114 339.603 253.226 340.309 252 341L240 348C239.372 348.343 238.718 348.971 238 349C237.282 349.029 236.654 349.292 236 349Z" fill="#2B303F"/>
<path d="M254 359L241 351C239.884 350.396 239.773 349.692 241 349L253 342C253.629 341.657 254.281 341.029 255 341C255.719 340.971 256.345 340.708 257 341L270 349C271.116 349.604 271.216 350.308 270 351L258 358C257.37 358.336 256.717 358.979 256 359C255.283 359.021 254.65 359.299 254 359V359Z" fill="#2B303F"/>
<path d="M272 370L259 362C257.886 361.397 257.785 360.691 259 360L271 353C271.626 352.657 272.284 352.029 273 352C273.716 351.971 274.348 351.708 275 352L288 360C289.115 360.603 289.226 361.309 288 362L276 369C275.372 369.343 274.718 369.971 274 370C273.282 370.029 272.654 370.292 272 370V370Z" fill="#2B303F"/>
<path d="M290 380L277 372C275.886 371.398 275.774 370.701 277 370L289 363C289.626 362.653 290.282 362.031 291 362C291.718 361.97 292.346 361.708 293 362L306 370C307.059 370.602 307.226 371.299 306 372L294 379C293.368 379.354 292.727 379.97 292 380C291.273 380.031 290.66 380.3 290 380V380Z" fill="#2B303F"/>
<path d="M308 390L295 382C293.94 381.397 293.772 380.691 295 380L307 373C307.629 372.657 308.281 372.029 309 372C309.719 371.971 310.345 371.708 311 372L324 380C325.116 380.603 325.217 381.309 324 382L312 389C311.373 389.343 310.717 389.971 310 390C309.283 390.029 308.653 390.292 308 390Z" fill="#2B303F"/>
<path d="M326 401L313 393C311.939 392.397 311.771 391.691 313 391L325 384C325.63 383.657 326.28 383.029 327 383C327.72 382.971 328.344 382.708 329 383L342 391C343.062 391.603 343.229 392.309 342 393L330 400C329.372 400.343 328.718 400.971 328 401C327.282 401.029 326.654 401.292 326 401V401Z" fill="#2B303F"/>
<path d="M344 411L331 403C329.938 402.397 329.782 401.691 331 401L343 394C343.628 393.657 344.282 393.029 345 393C345.718 392.972 346.346 392.708 347 393L360 401C361.062 401.603 361.229 402.309 360 403L348 410C347.369 410.345 346.722 410.972 346 411C345.278 411.029 344.658 411.294 344 411V411Z" fill="#2B303F"/>
<path d="M362 422L349 414C347.939 413.397 347.771 412.701 349 412L361 405C361.628 404.653 362.28 404.03 363 404C363.72 403.97 364.344 403.707 365 404L378 412C379.061 412.592 379.229 413.298 378 414L366 421C365.371 421.345 364.72 421.97 364 422C363.28 422.03 362.657 422.29 362 422Z" fill="#2B303F"/>
<path d="M380 432L367 424C365.94 423.397 365.772 422.691 367 422L379 415C379.629 414.657 380.281 414.029 381 414C381.719 413.971 382.345 413.708 383 414L396 422C397.116 422.603 397.216 423.309 396 424L384 431C383.373 431.343 382.717 431.971 382 432C381.283 432.029 380.653 432.292 380 432V432Z" fill="#2B303F"/>
<path d="M398 443L385 435C383.939 434.398 383.771 433.689 385 433L397 426C397.628 425.658 398.282 425.029 399 425C399.718 424.972 400.346 424.709 401 425L414 433C415.062 433.602 415.229 434.311 414 435L402 442C401.361 442.339 400.726 442.981 400 443C399.274 443.019 398.656 443.305 398 443V443Z" fill="#2B303F"/>
<path d="M181 318L155 302C153.906 301.394 153.797 300.694 155 300L167 293C167.617 292.655 168.295 292.029 169 292C169.705 291.971 170.358 291.706 171 292L197 308C198.094 308.606 198.192 309.306 197 310L185 317C184.385 317.345 183.703 317.971 183 318C182.297 318.029 181.64 318.293 181 318V318Z" fill="#2B303F"/>
<path d="M174 333L161 325C159.939 324.397 159.771 323.702 161 323L173 316C173.628 315.652 174.28 315.03 175 315C175.72 314.969 176.344 314.707 177 315L190 323C191.061 323.592 191.229 324.298 190 325L178 332C177.368 332.34 176.72 332.975 176 333C175.28 333.025 174.654 333.296 174 333V333Z" fill="#2B303F"/>
<path d="M192 343L179 335C177.94 334.397 177.772 333.691 179 333L191 326C191.629 325.657 192.281 325.029 193 325C193.719 324.971 194.345 324.708 195 325L208 333C209.116 333.603 209.217 334.309 208 335L196 342C195.373 342.343 194.717 342.971 194 343C193.283 343.029 192.653 343.292 192 343V343Z" fill="#2B303F"/>
<path d="M209 354L196 346C194.886 345.396 194.775 344.703 196 344L208 337C208.627 336.655 209.282 336.031 210 336C210.718 335.97 211.345 335.709 212 336L225 344C226.114 344.604 226.225 345.297 225 346L213 353C212.373 353.337 211.714 353.977 211 354C210.286 354.023 209.648 354.296 209 354Z" fill="#2B303F"/>
<path d="M228 364L215 356C213.884 355.397 213.773 354.691 215 354L227 347C227.627 346.657 228.283 346.029 229 346C229.717 345.971 230.347 345.708 231 346L244 354C245.06 354.603 245.227 355.309 244 356L232 363C231.371 363.343 230.719 363.971 230 364C229.281 364.029 228.655 364.292 228 364V364Z" fill="#2B303F"/>
<path d="M246 375L233 367C231.939 366.398 231.771 365.69 233 365L245 358C245.63 357.657 246.28 357.029 247 357C247.72 356.971 248.344 356.708 249 357L262 365C263.061 365.602 263.229 366.31 262 367L250 374C249.365 374.356 248.731 374.97 248 375C247.269 375.03 246.664 375.302 246 375Z" fill="#2B303F"/>
<path d="M264 385L251 377C249.938 376.397 249.782 375.691 251 375L263 368C263.628 367.657 264.282 367.029 265 367C265.718 366.971 266.346 366.708 267 367L280 375C281.062 375.603 281.229 376.309 280 377L268 384C267.37 384.343 266.72 384.971 266 385C265.28 385.029 264.656 385.292 264 385V385Z" fill="#2B303F"/>
<path d="M282 395L269 387C267.938 386.397 267.771 385.691 269 385L281 378C281.63 377.657 282.28 377.029 283 377C283.72 376.971 284.344 376.708 285 377L298 385C299.062 385.603 299.218 386.309 298 387L286 394C285.37 394.343 284.72 394.971 284 395C283.28 395.029 282.656 395.292 282 395V395Z" fill="#2B303F"/>
<path d="M300 406L287 398C285.938 397.397 285.782 396.701 287 396L299 389C299.626 388.653 300.281 388.03 301 388C301.719 387.969 302.346 387.707 303 388L316 396C317.062 396.592 317.229 397.298 316 398L304 405C303.371 405.345 302.72 405.969 302 406C301.28 406.03 300.657 406.29 300 406Z" fill="#2B303F"/>
<path d="M318 416L305 408C303.938 407.397 303.771 406.691 305 406L317 399C317.63 398.657 318.28 398.029 319 398C319.72 397.971 320.344 397.708 321 398L334 406C335.062 406.603 335.218 407.309 334 408L322 415C321.372 415.343 320.718 415.971 320 416C319.282 416.029 318.654 416.292 318 416V416Z" fill="#2B303F"/>
<path d="M336 427L323 419C321.938 418.408 321.781 417.702 323 417L335 410C335.627 409.655 336.282 409.031 337 409C337.718 408.97 338.345 408.71 339 409L352 417C353.062 417.603 353.23 418.298 352 419L340 426C339.373 426.346 338.719 426.97 338 427C337.281 427.031 336.655 427.291 336 427Z" fill="#2B303F"/>
<path d="M354 437L341 429C339.938 428.397 339.771 427.691 341 427L353 420C353.63 419.657 354.28 419.029 355 419C355.72 418.971 356.344 418.708 357 419L370 427C371.062 427.603 371.218 428.309 370 429L358 436C357.372 436.343 356.718 436.971 356 437C355.282 437.029 354.654 437.292 354 437V437Z" fill="#2B303F"/>
<path d="M394 460L359 439C357.953 438.395 357.787 437.693 359 437L371 430C371.621 429.656 372.29 429.029 373 429C373.71 428.971 374.353 428.707 375 429L410 450C411.047 450.594 411.213 451.296 410 452L398 459C397.381 459.344 396.708 459.969 396 460C395.292 460.031 394.647 460.29 394 460V460Z" fill="#2B303F"/>
<path d="M155 322L138 312C136.905 311.417 136.807 309.668 138 309L150 303C150.614 302.664 151.296 302.03 152 302C152.704 301.971 153.359 301.717 154 302L171 312C172.04 312.583 172.193 314.332 171 315L159 321C158.382 321.335 157.708 321.972 157 322C156.292 322.028 155.644 322.286 155 322Z" fill="#2B303F"/>
<path d="M463 420L208 271C206.908 270.408 206.798 269.701 208 269L214 266C214.613 265.656 215.298 265.03 216 265C216.702 264.969 217.36 264.71 218 265L473 414C474.038 414.602 474.202 415.299 473 416L467 419C466.382 419.339 465.704 419.975 465 420C464.296 420.025 463.64 420.295 463 420V420Z" fill="#2B303F"/>
<path d="M306 436C305.635 436.8 304.782 437.604 304 438L234 479C232.815 479.662 231.355 479.945 230 480C228.645 480.055 227.235 479.563 226 479L105 409C104.486 408.732 104.253 408.524 104 408C103.562 406.901 104.403 405.923 106 405L176 364C177.185 363.338 178.645 363.055 180 363C181.355 362.945 182.765 363.437 184 364L305 434C305.486 434.212 305.783 434.514 306 435C306.217 435.486 306.167 435.494 306 436V436Z" fill="#B1B4C4"/>
<path d="M305 435C304.636 435.796 303.78 436.606 303 437L233 478C231.818 478.659 230.351 478.945 229 479C227.649 479.055 226.232 478.56 225 478L105 409C104.487 408.733 104.252 408.521 104 408C104.372 407.212 105.226 406.397 106 406L176 365C177.182 364.341 178.649 364.057 180 364C181.351 363.943 182.767 364.442 184 365L304 434C304.51 434.263 304.752 434.482 305 435V435Z" fill="#C3C6D1"/>
<path d="M483 407L228 259C227.438 258.585 226.316 258.623 226 258C225.684 257.377 226.004 256.698 226 256V253C226 251.615 226.964 250.4 228 251L483 399C483.572 399.407 483.674 399.378 484 400C484.326 400.621 484.99 401.298 485 402V405C484.945 406.396 484.036 407.6 483 407Z" fill="#2B303F"/>
<path d="M266 243L241 229C237.816 227.198 235 222.144 235 218V192C235 187.834 237.816 186.241 241 188L266 202C269.195 203.802 272 208.856 272 213V239C271.956 243.166 269.151 244.802 266 243Z" fill="#E9EAF2"/>
<path d="M266 184L241 169C237.812 167.165 235 159.669 235 156V124C235 119.76 237.812 118.209 241 120L266 134C269.199 135.834 272 140.782 272 145V177C272 180.735 269.199 185.834 266 184Z" fill="#E9EAF2"/>
<path d="M253 162C247.767 159.077 244 151.846 244 146C244 140.155 247.767 137.077 253 140C258.233 142.923 263 150.155 263 156C263 161.846 258.244 164.923 253 162ZM253 143C249.106 140.843 246 142.654 246 147C246.127 149.376 246.773 151.939 248 154C249.227 156.062 250.939 157.7 253 159C256.905 161.157 261 159.346 261 155C260.873 152.622 260.229 150.064 259 148C257.771 145.936 255.064 144.3 253 143V143Z" fill="#0EDDAB"/>
<path d="M256 157L252 150V145L254 146V151L258 156L256 157Z" fill="#0EDDAB"/>
<path d="M266 116L241 101C237.812 99.1655 235 90.658 235 87V58C235 54.3529 237.812 53.1437 241 55L266 69C267.683 70.0838 268.996 72.279 270 74C271.005 75.721 271.892 77.0153 272 79V109C272 112.614 269.199 117.824 266 116Z" fill="#E9EAF2"/>
<path d="M253 81.0001C251.508 80.1545 250 81.2985 250 83.0001C250.05 83.9212 250.532 84.2011 251 85.0001C251.468 85.799 252.215 86.4969 253 87.0001C254.492 87.8456 256 87.6911 256 86.0001C255.947 85.0772 255.47 83.8004 255 83.0001C254.53 82.1997 253.786 81.5062 253 81.0001V81.0001ZM260 82.0001L258 81.0001C257.652 80.7664 257.109 80.4006 257 80.0001V78.0001C256.883 77.6003 256.348 77.2358 256 77.0001L250 73.0001C249.699 72.831 249.097 72.7253 249 73.0001V75.0001C248.972 75.0641 249.054 74.9547 249 75.0001C248.946 75.0454 248.068 74.9827 248 75.0001C247.932 75.0174 248.069 75.0142 248 75.0001C247.931 74.9859 248.056 75.0429 248 75.0001L246 74.0001C245.013 73.4293 244 73.8375 244 75.0001V84.0001C244.034 84.6135 244.689 85.4677 245 86.0001C245.311 86.5324 245.478 86.6632 246 87.0001L260 96.0001C260.988 96.5602 262 96.1626 262 95.0001V85.0001C261.961 84.3814 261.319 83.5344 261 83.0001C260.681 82.4657 260.53 82.3345 260 82.0001V82.0001ZM253 89.0001C251.692 88.1576 250.781 87.3329 250 86.0001C249.219 84.6672 248.087 83.5366 248 82.0001C248 79.1676 250.521 77.5838 253 79.0001C254.311 79.8394 255.218 80.6666 256 82.0001C256.782 83.3335 256.918 85.4626 257 87.0001C257 89.7902 255.49 90.4163 253 89.0001V89.0001ZM260 85.0001C259.819 84.8843 259.108 85.1837 259 85.0001C258.892 84.8165 259.012 84.212 259 84.0001C259 83.5984 259.657 83.7992 260 84.0001C260.183 84.1146 259.89 83.8164 260 84.0001C260.11 84.1837 259.987 84.7872 260 85.0001C260 85.37 260.354 85.2009 260 85.0001V85.0001Z" fill="#0EDDAB"/>
<path d="M261 219C261 223.974 254 230 254 230C254 230 246 215.008 246 210C246 204.992 249.855 202.518 254 205C256.182 206.483 257.698 208.651 259 211C260.302 213.349 260.86 216.292 261 219Z" fill="#0EDDAB"/>
<path d="M257.457 220.126C259.37 219.021 259.355 215.41 257.423 212.061C255.492 208.712 252.376 206.893 250.463 207.998C248.551 209.104 248.566 212.715 250.497 216.064C252.429 219.413 255.545 221.232 257.457 220.126Z" fill="#E9EAF2"/>
<path d="M444 284L292 196C289.419 194.521 287 190.429 287 187V85C287 81.5705 289.419 80.5099 292 82L444 170C446.57 171.49 449 175.56 449 179V281C449 284.44 446.57 285.49 444 284Z" fill="#E9EAF2"/>
<path d="M427 209L308 142C305.128 140.344 303 135.802 303 132V125C303 121.187 305.128 119.355 308 121L427 188C429.872 189.645 432 194.187 432 198V205C432 208.813 429.872 210.645 427 209Z" fill="white"/>
<path d="M362 207L308 177C305.151 175.354 303 170.816 303 167V160C303 156.184 305.151 154.354 308 156L362 186C364.849 187.646 367 192.184 367 196V203C367 206.816 364.849 208.646 362 207Z" fill="#0EDDAB"/>
<path d="M475 308C475 308 417.39 320.827 371 269C324.611 217.173 287 223 287 223V256L475 365V308Z" fill="url(#paint1_linear)"/>
<path d="M475 308C475 308 417.39 319.58 371 268C324.611 216.42 287 223 287 223" stroke="#CCCEDD" stroke-width="1.06" stroke-miterlimit="10"/>
<path d="M251 227L159 174C153.264 170.72 149 161.641 149 154V9.99995C149 2.34752 153.264 -1.30153 159 1.99995L251 55C256.725 58.2796 261 67.3584 261 75V219C261 226.652 256.725 230.312 251 227Z" fill="#211B49"/>
<path d="M249 228L157 175C151.275 171.72 147 162.641 147 155V10.9999C147 3.34752 151.275 -0.312475 157 2.99992L249 55.9999C254.725 59.2795 259 68.3584 259 75.9999V220C259 227.641 254.725 231.312 249 228Z" fill="#160032"/>
<path d="M247 76L177 35V29L247 70V76Z" fill="#0EDDAB"/>
<path d="M224 81L177 54V48L224 75V81Z" fill="#F9CB07"/>
<path d="M235 98L177 64V58L235 92V98Z" fill="#0EDDAB"/>
<path d="M217 97L177 74V68L217 91V97Z" fill="white"/>
<path d="M212 65L177 45V39L212 59V65Z" fill="#D6D8E5"/>
<path d="M198 95L177 83V77L198 89V95Z" fill="#0EDDAB"/>
<path d="M242 140L177 102V96L242 134V140Z" fill="#F9CB07"/>
<path d="M197 123L177 112V106L197 117V123Z" fill="#0EDDAB"/>
<path d="M235 156L177 122V116L235 150V156Z" fill="white"/>
<path d="M232 125L177 93V87L232 119V125Z" fill="#D6D8E5"/>
<path d="M184 135L177 131V125L184 129V135Z" fill="#0EDDAB"/>
<path d="M190 158L177 150V144L190 152V158Z" fill="#F9CB07"/>
<path d="M212 180L177 160V154L212 174V180Z" fill="#0EDDAB"/>
<path d="M233 202L177 170V164L233 196V202Z" fill="white"/>
<path d="M174 53L157 43V37L174 47V53Z" fill="#D6D8E5"/>
<path d="M174 63L157 53V47L174 57V63Z" fill="#D6D8E5"/>
<path d="M174 72L157 62V56L174 66V72Z" fill="#D6D8E5"/>
<path d="M174 82L157 72V66L174 76V82Z" fill="#D6D8E5"/>
<path d="M174 101L157 91V85L174 95V101Z" fill="#D6D8E5"/>
<path d="M174 111L157 101V95L174 105V111Z" fill="#D6D8E5"/>
<path d="M174 120L157 110V104L174 114V120Z" fill="#D6D8E5"/>
<path d="M174 91L157 81V75L174 85V91Z" fill="#D6D8E5"/>
<path d="M174 130L157 120V114L174 124V130Z" fill="#D6D8E5"/>
<path d="M174 149L157 139V133L174 143V149Z" fill="#D6D8E5"/>
<path d="M174 159L157 149V143L174 153V159Z" fill="#D6D8E5"/>
<path d="M174 168L157 158V152L174 162V168Z" fill="#D6D8E5"/>
<path d="M174 140L157 130V124L174 134V140Z" fill="#D6D8E5"/>
<path d="M247 182L177 141V135L247 176V182Z" fill="#D6D8E5"/>
<path d="M40 329L30 324L9 336C4.25241 338.73 0 336.472 0 331V308C0.161987 305.025 1.50458 302.581 3 300C4.49542 297.419 6.49451 294.628 9 293L133 221C137.748 218.269 142 220.539 142 226V249C141.838 251.975 140.495 254.419 139 257C137.505 259.581 135.505 262.372 133 264L49 312" fill="#B1B4C4"/>
<path d="M139 220L144 222L140 226L137 221L139 220Z" fill="#B1B4C4"/>
<path d="M40 329L45 331V327L41 326L40 329Z" fill="#B1B4C4"/>
<path d="M8.99999 339C9.19294 339.414 3.20429 337.322 2.99999 337C2.7957 336.678 9.99999 332 9.99999 332L8.99999 339Z" fill="#B1B4C4"/>
<path d="M55 314L138 266C140.503 264.369 142.505 261.581 144 259C145.495 256.419 146.835 253.976 147 251V228C147 222.537 142.746 220.312 138 223L14 295C11.4965 296.63 9.49481 299.419 8 302C6.50519 304.581 5.16366 307.024 5 310V333C5 338.463 9.25388 340.699 14 338L35 326L45 331L55 314Z" fill="#E9EAF2"/>
<path d="M136 243L16 312V304L136 235V243Z" fill="#0EDDAB"/>
<path d="M94 281L16 326V318L94 273V281Z" fill="#0EDDAB"/>
<path d="M500 82.9999L448 52.9999C446.61 52.1949 445.963 51.5649 445 51.9999C444.867 52.0607 444.121 51.9176 444 51.9999L439 54.9999L443 60.9999V99.9999C443 103.5 444.982 107.26 448 109L468 121L471 128L468 139L474 136L479 128L497 138V143L503 140C504.167 139.5 505 137.93 505 136V91.9999C505.01 88.4998 503.013 84.75 500 82.9999Z" fill="#EDEEF7"/>
<path d="M494 86.0001L442 56.0001C438.999 54.2606 437 55.5211 437 59.0001V102C437 105.479 438.989 109.271 442 111L462 123L468 138L474 130L494 141C497.006 142.74 499 141.479 499 138V95C498.99 91.5211 497.016 87.7395 494 86.0001Z" fill="#F8F9FF"/>
<path d="M475.372 112.161C479.201 109.957 478.825 102.107 474.838 95.1622C470.851 88.217 464.764 84.8068 460.934 87.0102C457.105 89.2137 456.983 96.1965 460.97 103.142C464.957 110.087 471.542 114.364 475.372 112.161Z" fill="#0EDDAB"/>
<path opacity="0.4" d="M462 555L389 514C388.588 513.761 388.233 513.414 388 513C387.767 512.586 387.989 511.474 388 511C388.011 510.525 387.748 510.403 388 510C388.252 509.597 388.578 509.22 389 509L399 504C399.395 503.798 399.556 503.99 400 504C400.444 504.01 400.615 503.78 401 504L476 547C476.414 547.237 476.765 547.586 477 548C477.234 548.414 477.011 548.524 477 549C476.989 549.475 477.253 550.597 477 551C476.747 551.403 476.425 551.782 476 552L469 555C467.842 555.597 466.304 556.03 465 556C463.696 555.97 463.129 555.649 462 555V555Z" fill="#D6D8E5"/>
<path d="M466 547L404 511C398.813 507.989 395 499.952 395 493V321C395 314.048 398.813 310.989 404 314L466 350C471.187 353.011 475 361.048 475 368V540C474.959 546.952 471.187 550.011 466 547Z" fill="#B1B4C4"/>
<path d="M467 551L472 548L467 540V551Z" fill="#B1B4C4"/>
<path d="M394 315L398 313L397 320L394 315Z" fill="#B1B4C4"/>
<path d="M462 549L400 513C394.813 509.989 391 501.951 391 495V323C391 316.049 394.813 312.989 400 316L462 352C467.187 355.011 471 363.049 471 370V542C471.033 548.951 467.187 552.011 462 549Z" fill="#616E84"/>
<path d="M470 370V542C470 548.96 466.188 552.011 461 549L437 535L429 531L399 513C393.812 509.989 390 501.96 390 495V323C390 316.04 393.812 312.997 399 316L461 352C466.163 355.011 470 363.04 470 370Z" fill="#20232D"/>
<path d="M466 368V535C466 539.218 462.601 541.117 459 539L440 528L439 527H438L434 524L422 517L417 514L415 513L402 505C398.383 502.891 395 498.226 395 494V327C395 322.782 398.399 320.891 402 323L425 337V337C425.098 338.788 426.111 340.45 427 342C427.889 343.55 428.512 345.024 430 346C432.825 347.648 436 346.279 436 343C436 343 436 343.025 436 343L459 357C462.617 359.109 466 363.815 466 368Z" fill="white"/>
<path d="M433.71 345.208C434.427 344.794 433.909 343.542 433.087 342.104C432.264 340.665 431.449 339.585 430.732 340C430.014 340.414 429.667 342.166 430.489 343.604C431.312 345.043 432.993 345.623 433.71 345.208Z" fill="#2B303F"/>
<path opacity="0.1" d="M431 343C430.73 342.86 430.162 342.222 430 342C429.838 341.778 430.019 342.256 430 342C430 341.525 430.487 340.77 431 341C431.272 341.14 431.838 341.777 432 342C432.162 342.223 431.983 341.742 432 342C431.991 342.468 431.513 343.238 431 343Z" fill="white"/>
<path d="M473 393C472.487 393.292 472 392.674 472 392V385C472.005 384.663 471.838 384.298 472 384C472.162 383.702 472.716 383.195 473 383V383C473.513 382.707 474 383.325 474 384V391C473.996 391.336 474.161 391.702 474 392C473.839 392.298 473.283 392.804 473 393V393Z" fill="#757B89"/>
<path d="M473 405C472.487 405.292 472 404.674 472 404V397C472.005 396.663 471.838 396.298 472 396C472.162 395.702 472.716 395.195 473 395V395C473.513 394.707 474 395.325 474 396V403C473.996 403.336 474.161 403.702 474 404C473.839 404.298 473.283 404.804 473 405V405Z" fill="#757B89"/>
<path d="M454 387L405 357C404.227 356.443 403.441 355.85 403 355C402.559 354.15 402.014 352.959 402 352V338C402 336.118 403.595 335.179 405 336L454 366C454.772 366.561 455.559 367.149 456 368C456.441 368.851 456.984 370.04 457 371V385C457 386.89 455.397 387.813 454 387Z" fill="#E9EAF2"/>
<path d="M402 351V364L409 360L402 351Z" fill="#E9EAF2"/>
<path d="M450 372L412 350V346L450 368V372Z" fill="#0EDDAB"/>
<path d="M431 367L412 356V352L431 363V367Z" fill="#0EDDAB"/>
<path d="M440 450L405 427C404.235 426.434 403.436 425.862 403 425C402.564 424.138 402.013 422.973 402 422V415C402 413.09 403.611 412.167 405 413L440 436C440.763 436.567 441.564 437.138 442 438C442.436 438.862 442.985 440.027 443 441V448C443 449.918 441.381 450.833 440 450Z" fill="#E9EAF2"/>
<path d="M402 421V434L409 430L402 421Z" fill="#E9EAF2"/>
<path d="M438 442L410 426V422L438 438V442Z" fill="#0EDDAB"/>
<path d="M423 407L454 426C455.384 426.834 457 425.894 457 424V410C456.985 409.035 456.437 407.855 456 407C455.563 406.145 454.765 404.562 454 404L423 385C421.608 384.165 420 385.106 420 387V401C420.015 401.965 420.563 403.145 421 404C421.437 404.855 422.235 406.438 423 407Z" fill="#E9EAF2"/>
<path d="M457 421V434L450 422L457 421Z" fill="#E9EAF2"/>
<path d="M427 397L448 409V405L427 393V397Z" fill="#0EDDAB"/>
<path d="M427 403L438 410V406L427 399V403Z" fill="#0EDDAB"/>
<path d="M405 469L454 499C455.412 499.831 457 498.896 457 497V483C456.986 482.037 456.443 480.853 456 480C455.557 479.147 454.778 478.561 454 478L405 448C403.588 447.169 402 448.104 402 450V464C402.015 464.962 402.557 466.148 403 467C403.443 467.852 404.223 468.44 405 469V469Z" fill="#E9EAF2"/>
<path d="M457 494V507L450 495L457 494Z" fill="#E9EAF2"/>
<path d="M410 460L445 480V476L410 456V460Z" fill="#0EDDAB"/>
<path d="M410 466L443 485V481L410 462V466Z" fill="#0EDDAB"/>
<path d="M455 529L405 499C404.136 498.437 403.517 497.892 403 497C402.483 496.108 402.058 495.028 402 494V487C402 485.111 403.361 484.055 405 485L455 515C455.863 515.564 456.485 516.108 457 517C457.515 517.892 457.943 518.973 458 520V527C458 528.889 456.631 529.928 455 529ZM405 486C403.83 485.326 403 486.653 403 488V494C403.041 494.734 402.631 495.364 403 496C403.369 496.637 404.382 497.599 405 498L455 528C456.17 528.674 457 527.347 457 526V520C456.961 519.266 457.368 518.637 457 518C456.632 517.364 455.617 516.402 455 516L405 486Z" fill="#E9EAF2"/>
<path d="M407 496H406V489H407V496Z" fill="#E9EAF2"/>
<path opacity="0.3" d="M268 571L154 506C152.409 505.09 153.17 504.035 155 503L218 466C219.831 464.946 223.416 465.09 225 466L339 531C340.584 531.91 339.831 532.958 338 534L275 571C273.144 572.054 269.584 571.922 268 571Z" fill="#D6D8E5"/>
<path d="M343 528L342 529L228 464C226.419 463.09 222.827 462.952 221 464L158 501C157.738 501.149 157.224 500.798 157 501H156V503C156.019 503.33 155.812 503.727 156 504C156.188 504.273 156.697 503.863 157 504L271 569C272.581 569.91 276.173 570.048 278 569L341 532C342.033 531.372 343.031 530.715 343 530V528Z" fill="#DADCE5"/>
<path d="M271 567L157 502C155.41 501.09 156.17 500.035 158 499L221 462C222.83 460.946 226.416 461.09 228 462L342 527C343.59 527.91 342.83 528.958 341 530L278 567C276.17 568.06 272.584 567.91 271 567Z" fill="#F8F9FF"/>
<path d="M195 514L173 501L178 498L200 511L195 514Z" fill="#0EDDAB"/>
<path d="M239 488L217 475L222 472L244 485L239 488Z" fill="#0EDDAB"/>
<path d="M222 529L200 516L205 513L227 526L222 529Z" fill="#0EDDAB"/>
<path d="M248 543L226 530L231 527L253 540L248 543Z" fill="#0EDDAB"/>
<path d="M275 559L253 546L258 543L280 556L275 559Z" fill="#0EDDAB"/>
<path opacity="0.5" d="M316 533C321.247 533 325 530.038 325 527C325 523.962 321.247 522 316 522C310.753 522 306 523.962 306 527C306 530.038 310.753 533 316 533Z" fill="#0EDDAB"/>
<path opacity="0.5" d="M308 529C313.247 529 318 527.038 318 524C318 520.962 313.247 518 308 518C302.753 518 299 520.962 299 524C299 527.038 302.753 529 308 529Z" fill="#0EDDAB"/>
<path opacity="0.3" d="M90 384C103.807 384 115 378.008 115 370C115 361.992 103.807 355 90 355C76.193 355 65 361.992 65 370C65 378.008 76.193 384 90 384Z" fill="#D6D8E5"/>
<path d="M92 380C105.807 380 117 374.008 117 366C117 357.992 105.807 351 92 351C78.193 351 67 357.992 67 366C67 374.008 78.193 380 92 380Z" fill="#DD990E"/>
<path d="M67 366V359L72 364L67 366Z" fill="#DD990E"/>
<path d="M117 359V365L114 368L113 361L117 359Z" fill="#DD990E"/>
<path d="M92 374C105.807 374 117 368.008 117 360C117 351.992 105.807 345 92 345C78.193 345 67 351.992 67 360C67 368.008 78.193 374 92 374Z" fill="#F9CB07"/>
<path d="M110 360C109.743 362.448 108.238 365.12 105 367C97.9854 371.07 86.0146 371.07 79 367C75.7676 365.12 74.2467 362.448 74 360C73.6968 357.128 75.2178 354.19 79 352C86.0146 347.925 97.9854 347.925 105 352C108.782 354.19 110.298 357.128 110 360Z" fill="#CC8B09"/>
<path d="M110 360C109.742 362.383 108.25 364.17 105 366C97.9579 369.961 86.0421 369.961 79 366C75.7549 364.17 74.2476 362.383 74 360C74.2476 357.612 75.7549 354.83 79 353C86.0421 349.034 97.9579 349.034 105 353C108.25 354.83 109.742 357.612 110 360Z" fill="#E8A30A"/>
<path d="M92 357C91.778 356.999 91.2192 356.967 91 357C90.6996 357.044 90.3676 356.927 90 357C89.6323 357.073 89.3987 356.888 89 357C88.6112 357.109 88.3661 356.835 88 357L91 359V359C91.7405 358.77 92.3682 358.161 93 358C93.6167 357.845 94.3631 358.04 95 358C95.5792 357.965 96.4313 357.891 97 358C97.5832 358.117 98.4856 358.715 99 359C99.5046 359.241 99.6827 359.558 100 360C100.105 360.158 99.9688 359.816 100 360C100.031 360.184 100.048 360.819 100 361C99.8775 361.404 99.3217 361.709 99 362C98.5989 362.374 98.483 362.725 98 363L100 364H99L97 363C96.1099 363.409 94.956 363.758 94 364C92.998 364.263 92.0346 364.901 91 365L90 363C90.2719 362.994 90.7303 363.033 91 363C91.4106 362.955 91.5964 363.085 92 363C92.4453 362.907 93.5029 363.137 94 363C94.4853 362.871 94.5407 362.196 95 362L92 361V361H91C90.2699 361.225 89.6058 360.868 89 361C88.4406 361.123 88.5738 361.98 88 362C87.4955 362.017 86.4924 362.105 86 362C85.5095 361.886 85.4369 361.239 85 361C84.5235 360.764 83.3211 360.408 83 360C82.7686 359.693 82.9799 359.377 83 359C83.0428 358.607 83.7291 358.301 84 358C84.333 357.606 84.5542 357.277 85 357L83 356L84 355L86 356C86.7971 355.629 87.1379 355.204 88 355C88.8204 354.803 90.1585 355.086 91 355L92 357ZM87 359C87.3816 359.205 87.5628 360.04 88 360C88.5883 359.934 89.4384 359.178 90 359L87 358C86.0006 358.601 86.1818 358.55 87 359ZM96 360C95.584 359.787 95.4683 359.936 95 360C94.3658 360.085 93.6097 359.815 93 360L96 362C97.1288 361.33 96.7871 360.43 96 360Z" fill="#CC8B09"/>
<path d="M90 364C90 363.954 90 363 90 363H91V364H90Z" fill="#CC8B09"/>
<path d="M99 364V363H97L98 364H99Z" fill="#CC8B09"/>
<path d="M100 361V360L98 361H100Z" fill="#CC8B09"/>
<path d="M93 361L94 360L96 362V362C96 362 94.0574 361.038 94 361C93.9426 360.962 93 361 93 361Z" fill="#CC8B09"/>
<path d="M87 358L89 359H90C90 359 90.0229 358.033 90 358C89.7794 357.74 89.2897 358.176 89 358C88.812 357.963 88 357 88 357L87 358Z" fill="#CC8B09"/>
<path d="M92 356V355H90V356V356H92Z" fill="#CC8B09"/>
<path d="M83 356V355H84V356H83Z" fill="#CC8B09"/>
<path d="M83 359V358H85V359L84 360L83 359Z" fill="#CC8B09"/>
<path d="M92 356C91.778 355.999 91.2192 355.967 91 356C90.6996 356.039 90.3676 355.927 90 356C89.6323 356.073 89.3987 355.888 89 356C88.6121 356.109 88.3672 355.839 88 356L91 358V358C91.7405 357.765 92.3682 357.161 93 357C93.6167 356.845 94.3631 357.04 95 357C95.579 356.966 96.4307 356.895 97 357C97.5834 357.119 98.4858 357.714 99 358C99.5046 358.241 99.6827 358.558 100 359C100.105 359.158 99.9688 358.816 100 359C100.031 359.184 100.048 359.819 100 360C99.8773 360.403 99.3215 360.711 99 361C98.6002 361.376 98.4841 361.726 98 362L100 363H99L97 362C96.1109 362.411 94.9568 362.761 94 363C92.9979 363.261 92.0344 363.903 91 364L90 362C90.2719 361.994 90.7303 362.033 91 362C91.3676 361.961 91.5495 362.088 92 362C92.4505 361.912 93.5029 362.137 94 362C94.4853 361.871 94.5407 361.196 95 361L92 360V360H91C90.2716 360.225 89.6076 359.873 89 360C88.4411 360.125 88.574 360.982 88 361C87.4955 361.017 86.4924 361.105 86 361C85.508 360.89 85.4347 360.243 85 360C84.5234 359.764 83.321 359.408 83 359C82.7686 358.693 82.9799 358.377 83 358C83.0437 357.606 83.7298 357.303 84 357C84.3347 356.609 84.5557 356.277 85 356L83 355L84 354L86 355C86.7971 354.629 87.1379 354.204 88 354C88.8204 353.803 90.1585 354.086 91 354L92 356ZM87 358C87.3796 358.21 87.562 359.042 88 359C88.5883 358.934 89.4384 358.178 90 358L87 357C86.0023 357.603 86.1818 357.553 87 358ZM96 359C95.5849 358.785 95.4683 358.934 95 359C94.3569 359.078 93.6178 358.814 93 359L96 361C97.1565 360.338 96.7871 359.427 96 359Z" fill="#F9CA06"/>
<path d="M92 372C105.807 372 117 366.008 117 358C117 349.992 105.807 343 92 343C78.193 343 67 349.992 67 358C67 366.008 78.193 372 92 372Z" fill="#DD990E"/>
<path d="M67 358V351L72 356L67 358Z" fill="#DD990E"/>
<path d="M117 351V357L114 360L113 353L117 351Z" fill="#DD990E"/>
<path d="M92 366C105.807 366 117 360.008 117 352C117 343.992 105.807 337 92 337C78.193 337 67 343.992 67 352C67 360.008 78.193 366 92 366Z" fill="#F9CB07"/>
<path d="M110 352C109.743 354.453 108.238 357.12 105 359C97.9854 363.07 86.0146 363.07 79 359C75.7676 357.12 74.2467 354.453 74 352C73.6968 349.128 75.2178 346.19 79 344C86.0146 339.925 97.9854 339.925 105 344C108.782 346.195 110.298 349.134 110 352Z" fill="#CC8B09"/>
<path d="M110 352C109.742 354.388 108.25 356.17 105 358C97.9579 361.962 86.0421 361.962 79 358C75.7549 356.17 74.2476 354.388 74 352C74.2476 349.612 75.7549 346.83 79 345C86.0421 341.033 97.9579 341.033 105 345C108.25 346.835 109.742 349.617 110 352Z" fill="#E8A30A"/>
<path d="M92 349C91.7779 349.002 91.2192 348.966 91 349C90.6997 349.039 90.3677 348.927 90 349C89.6324 349.073 89.3988 348.888 89 349C88.6114 349.107 88.3663 349.837 88 350L91 351V351C91.7405 350.766 92.3682 350.161 93 350C93.6168 349.845 94.3631 350.04 95 350C95.5791 349.964 96.431 349.893 97 350C97.5834 350.118 98.4858 350.715 99 351C99.5042 351.239 99.6822 351.561 100 352C100.105 352.158 99.9689 351.816 100 352C100.031 352.184 100.048 352.819 100 353C99.8774 353.402 99.3216 353.712 99 354C98.5989 354.373 98.483 354.726 98 355L100 356H99L97 355C96.1099 355.407 94.9561 355.759 94 356C92.9973 356.258 92.0342 356.901 91 357L90 355C90.2719 354.994 90.7303 355.033 91 355C91.3677 354.956 91.5495 355.093 92 355C92.4506 354.907 93.5029 355.136 94 355C94.4853 354.871 94.5408 354.196 95 354L92 353V353H91C90.3421 353.209 89.6773 352.855 89 353C88.4407 353.122 88.5739 353.98 88 354C87.4955 354.017 86.4925 354.105 86 354C85.5088 353.888 85.4359 353.241 85 353C84.5235 352.765 83.3211 352.407 83 352C82.7693 351.691 82.9808 351.377 83 351C83.0428 350.608 83.7291 350.3 84 350C84.3334 349.609 84.5545 349.274 85 349L83 348L84 347L86 348C86.7972 347.63 87.1379 347.203 88 347C88.821 346.806 90.1589 347.089 91 347L92 349ZM87 352C87.3803 352.208 87.5626 352.043 88 352C88.5893 351.939 89.4398 351.182 90 351L87 350C86.0023 350.604 86.1818 351.555 87 352ZM96 352C95.5857 351.783 95.4684 351.932 95 352C94.3574 352.078 93.6186 351.819 93 352L96 354C97.1566 353.343 96.7872 352.426 96 352V352Z" fill="#CC8B09"/>
<path d="M90 356C90 355.95 90 355 90 355H91V356H90Z" fill="#CC8B09"/>
<path d="M99 356V355H97L98 356H99Z" fill="#CC8B09"/>
<path d="M100 353V352L98 353H100Z" fill="#CC8B09"/>
<path d="M93 353L94 352L96 354V354C96 354 94.0574 353.038 94 353C93.9426 352.962 93 353 93 353Z" fill="#CC8B09"/>
<path d="M87 350L89 351H90C90 351 90.0229 350.037 90 350C89.7782 349.742 89.2887 350.177 89 350C88.812 349.963 88 349 88 349L87 350Z" fill="#CC8B09"/>
<path d="M92 348V347H90V348V348H92Z" fill="#CC8B09"/>
<path d="M83 348V347H84V348H83Z" fill="#CC8B09"/>
<path d="M83 351V350H85V351L84 352L83 351Z" fill="#CC8B09"/>
<path d="M92 348C91.7786 347.999 91.2187 347.967 91 348C90.7004 348.044 90.3668 347.927 90 348C89.6333 348.073 89.3978 347.888 89 348C88.6122 348.108 88.3653 348.836 88 349L91 350V350C91.7387 349.771 92.3698 349.161 93 349C93.6153 348.845 94.3647 349.04 95 349C95.5779 348.965 96.4327 348.891 97 349C97.5818 349.117 97.4869 349.716 98 350C98.5123 350.231 99.6723 350.562 100 351C100.105 351.157 99.969 350.816 100 351C100.031 351.183 100.048 351.82 100 352C99.8753 352.412 99.3317 352.707 99 353C98.6013 353.375 98.483 353.727 98 354L100 355H99L97 354C96.1121 354.408 94.9538 354.759 94 355C93.0005 355.262 92.0321 355.902 91 356L90 354C90.2713 353.994 90.731 354.033 91 354C91.4097 353.955 91.5975 354.085 92 354C92.4443 353.907 93.5041 354.136 94 354C94.4841 353.871 94.5419 353.196 95 353L92 352V352H91C90.2717 352.224 89.6044 351.868 89 352C88.442 352.122 88.5725 352.98 88 353C87.4968 353.017 86.4913 353.105 86 353C85.5107 352.886 85.4358 352.239 85 352C84.5248 351.764 83.3204 351.406 83 351C82.7692 350.693 82.98 350.376 83 350C83.0427 349.608 83.7298 349.3 84 349C84.3323 348.607 84.5554 348.276 85 348L83 347L84 346L86 347C86.7952 346.63 87.14 346.204 88 346C88.8184 345.804 90.1606 346.086 91 346L92 348ZM87 350C87.3807 350.205 87.5639 351.04 88 351C88.5874 350.937 89.4405 350.18 90 350L87 349C86.0031 349.6 86.1839 349.551 87 350V350ZM96 351C95.585 350.788 95.4672 350.936 95 351C94.3589 351.08 93.617 350.817 93 351L96 353C97.152 352.342 96.7852 351.429 96 351V351Z" fill="#F9CA06"/>
<path d="M94 362C107.807 362 119 355.008 119 347C119 338.992 107.807 333 94 333C80.193 333 69 338.992 69 347C69 355.008 80.193 362 94 362Z" fill="#DD990E"/>
<path d="M69 348V341L74 346L69 348Z" fill="#DD990E"/>
<path d="M119 341V347L116 350L115 343L119 341Z" fill="#DD990E"/>
<path d="M94 356C107.807 356 119 350.008 119 342C119 333.992 107.807 327 94 327C80.193 327 69 333.992 69 342C69 350.008 80.193 356 94 356Z" fill="#F9CB07"/>
<path d="M112 342C111.743 344.454 110.232 347.119 107 349C99.9802 353.066 88.0198 353.066 81 349C77.7676 347.119 76.2518 344.454 76 342C75.6968 339.133 77.2229 336.19 81 334C88.0198 329.924 99.9802 329.924 107 334C110.777 336.19 112.298 339.133 112 342Z" fill="#CC8B09"/>
<path d="M112 342C111.742 344.388 110.245 346.17 107 348C99.9527 351.957 88.0473 351.957 81 348C77.7549 346.17 76.2528 344.388 76 342C76.2528 339.617 77.7549 336.83 81 335C88.0473 331.033 99.9527 331.033 107 335C110.224 336.83 111.742 339.617 112 342Z" fill="#E8A30A"/>
<path d="M94 339C93.7779 338.999 93.2192 338.967 93 339C92.7047 339.039 92.3678 338.927 92 339C91.6322 339.073 91.3937 338.888 91 339C90.6106 339.11 90.3694 339.84 90 340L93 341V341C93.7355 340.771 94.3628 340.161 95 340C95.6151 339.845 96.3646 340.039 97 340C97.5811 339.965 98.4293 339.891 99 340C99.5817 340.117 100.487 340.716 101 341C101.505 341.24 101.683 341.559 102 342C102.105 342.158 101.968 341.817 102 342C102.032 342.183 102.045 342.819 102 343C101.873 343.402 101.321 343.708 101 344C100.6 344.373 100.481 344.724 100 345L102 346H101L99 345C98.1096 345.408 96.9564 345.759 96 346C94.9996 346.262 94.0333 346.902 93 347L92 345C92.2737 344.994 92.7284 345.033 93 345C93.409 344.954 93.598 345.084 94 345C94.4506 344.907 95.5027 345.137 96 345C96.4864 344.869 96.5379 344.194 97 344L94 343V343H93C92.2696 343.224 91.606 342.873 91 343C90.4388 343.124 90.5758 343.978 90 344C89.495 344.017 88.4921 344.108 88 344C87.5088 343.89 87.4361 343.239 87 343C86.525 342.764 85.3194 342.406 85 342C84.7639 341.695 84.9748 341.376 85 341C85.0425 340.607 85.7319 340.304 86 340C86.3418 339.605 86.5456 339.277 87 339L85 338L86 337L88 338C88.7967 337.628 89.1371 337.202 90 337C90.8204 336.803 92.1581 337.085 93 337L94 339ZM89 341C89.3805 341.208 89.562 342.04 90 342C90.5902 341.935 91.4365 341.178 92 341L89 340C87.9916 340.605 88.1712 340.558 89 341ZM98 342C97.5835 341.789 97.4684 341.938 97 342C96.355 342.078 95.6198 341.815 95 342L98 344C99.1465 343.34 98.7839 342.426 98 342V342Z" fill="#CC8B09"/>
<path d="M92 346C92.0279 345.95 92 345 92 345H93V346H92Z" fill="#CC8B09"/>
<path d="M101 346V345H99L100 346H101Z" fill="#CC8B09"/>
<path d="M102 343V342L100 343H102Z" fill="#CC8B09"/>
<path d="M95 343L96 342L98 344V344C98 344 96.0802 343.044 96 343H95Z" fill="#CC8B09"/>
<path d="M89 340L91 341H92C92 341 92.0229 340.037 92 340C91.7752 339.743 91.289 340.179 91 340C90.8166 339.967 90 339 90 339L89 340Z" fill="#CC8B09"/>
<path d="M94 338V337H92V338V338H94Z" fill="#CC8B09"/>
<path d="M85 338V337H86V338H85Z" fill="#CC8B09"/>
<path d="M85 341V340H87V341L86 342L85 341Z" fill="#CC8B09"/>
<path d="M94 338C93.7779 337.997 93.2189 337.964 93 338C92.7048 338.039 92.3678 337.927 92 338C91.6323 338.073 91.3937 337.888 91 338C90.6107 338.11 90.3695 338.84 90 339L93 340V340C93.7355 339.766 94.3629 339.161 95 339C95.6151 338.845 96.3646 339.039 97 339C97.5809 338.964 98.4291 338.892 99 339C99.5819 339.119 100.487 339.714 101 340C101.505 340.241 101.683 340.558 102 341C102.105 341.158 101.968 340.816 102 341C102.032 341.184 102.046 341.819 102 342C101.873 342.402 101.321 342.71 101 343C100.601 343.374 100.482 343.725 100 344L102 345H101L99 344C98.1097 344.408 96.9564 344.759 96 345C94.9989 345.259 94.0328 345.901 93 346L92 344C92.2737 343.994 92.7285 344.033 93 344C93.3626 343.961 93.5494 344.093 94 344C94.4507 343.907 95.5028 344.137 96 344C96.4871 343.871 96.5389 343.196 97 343L94 342V342H93C92.3437 342.21 91.6757 341.855 91 342C90.4387 342.122 90.5757 342.979 90 343C89.4954 343.017 88.4927 343.104 88 343C87.5079 342.89 87.4349 342.243 87 342C86.5237 341.766 85.3177 341.408 85 341C84.7632 340.694 84.974 340.378 85 340C85.0414 339.608 85.7309 339.301 86 339C86.3348 338.61 86.5556 338.276 87 338L85 337L86 336L88 337C88.7948 336.623 89.1357 336.198 90 336C90.8209 335.803 92.1584 336.09 93 336L94 338ZM89 340C89.3803 340.209 89.5625 341.043 90 341C90.5911 340.939 91.4379 340.183 92 340L89 339C87.9917 339.606 88.1713 339.554 89 340ZM98 341C97.5844 340.786 97.4685 340.935 97 341C96.3556 341.078 95.6205 340.818 95 341L98 343C99.1568 342.346 98.7839 341.43 98 341Z" fill="#F9CA06"/>
<path d="M94 353C107.807 353 119 347.008 119 339C119 330.992 107.807 324 94 324C80.193 324 69 330.992 69 339C69 347.008 80.193 353 94 353Z" fill="#DD990E"/>
<path d="M69 339V332L74 337L69 339Z" fill="#DD990E"/>
<path d="M119 332V338L116 341L115 334L119 332Z" fill="#DD990E"/>
<path d="M94 347C107.807 347 119 340.008 119 332C119 323.992 107.807 318 94 318C80.193 318 69 323.992 69 332C69 340.008 80.193 347 94 347Z" fill="#F9CB07"/>
<path d="M112 333C111.743 335.453 110.238 338.12 107 340C99.9854 344.07 88.0146 344.07 81 340C77.7625 338.12 76.2467 335.453 76 333C75.6968 330.128 77.2178 327.19 81 325C88.0146 320.925 99.9854 320.925 107 325C110.782 327.19 112.298 330.128 112 333Z" fill="#CC8B09"/>
<path d="M112 333C111.742 335.388 110.25 337.17 107 339C99.9579 342.962 88.0421 342.962 81 339C77.7498 337.17 76.2476 335.388 76 333C76.2476 330.612 77.7498 327.825 81 326C88.0421 322.033 99.9579 322.033 107 326C110.255 327.825 111.742 330.612 112 333Z" fill="#E8A30A"/>
<path d="M94 330C93.7782 330.002 93.2189 329.966 93 330C92.7 330.039 92.3724 329.927 92 330C91.6276 330.073 91.3983 329.888 91 330C90.6125 330.111 90.3667 330.838 90 331L93 332V332C93.7396 331.766 94.369 331.161 95 331C95.616 330.845 96.3639 331.04 97 331C97.5784 330.964 98.4317 330.893 99 331C99.5827 331.118 100.486 331.715 101 332C101.504 332.239 101.683 332.561 102 333C102.105 333.158 101.969 332.816 102 333C102.031 333.184 102.047 333.819 102 334C101.878 334.402 101.321 334.712 101 335C100.6 335.374 100.483 335.726 100 336L102 337H101L99 336C98.1141 336.41 96.9543 336.762 96 337C94.9993 337.262 94.0334 337.902 93 338L92 336C92.2716 335.994 92.7306 336.033 93 336C93.3672 335.956 93.55 336.093 94 336C94.45 335.907 95.5035 336.136 96 336C96.4847 335.871 96.5413 335.196 97 335L94 334V334H93C92.2707 334.224 91.6052 333.873 91 334C90.4413 334.122 90.5731 334.979 90 335C89.4944 335.017 88.4937 335.104 88 335C87.511 334.888 87.4335 334.241 87 334C86.524 333.765 85.3207 333.407 85 333C84.7696 332.691 84.9808 332.377 85 332C85.0413 331.609 85.7313 331.301 86 331C86.3359 330.61 86.5544 330.275 87 330L85 329L86 328L88 329C88.7962 328.63 89.1389 328.203 90 328C90.82 327.806 92.1599 328.089 93 328L94 330ZM89 332C89.3823 332.207 89.5616 333.042 90 333C90.5885 332.939 91.4405 332.182 92 332L89 331C88.007 331.6 88.1828 331.556 89 332ZM98 333C97.5848 332.787 97.4673 332.933 97 333C96.3565 333.078 95.6196 332.818 95 333L98 335C99.1551 334.334 98.7862 333.419 98 333Z" fill="#CC8B09"/>
<path d="M92 337C92.0234 336.95 92 336 92 336H93V337H92Z" fill="#CC8B09"/>
<path d="M101 337V336H99L100 337H101Z" fill="#CC8B09"/>
<path d="M102 334V333L100 334H102Z" fill="#CC8B09"/>
<path d="M95 334L96 333L98 335V335C98 335 96.0573 334.038 96 334C95.9427 333.962 95 334 95 334Z" fill="#CC8B09"/>
<path d="M89 331L91 332H92C92 332 92.0229 331.033 92 331C91.7774 330.741 91.2908 331.176 91 331C90.8166 330.963 90 330 90 330L89 331Z" fill="#CC8B09"/>
<path d="M94 329V328H92V329V329H94Z" fill="#CC8B09"/>
<path d="M85 329V328H86V329H85Z" fill="#CC8B09"/>
<path d="M85 332V331H87V332L86 333L85 332Z" fill="#CC8B09"/>
<path d="M94 329C93.778 329 93.2193 328.967 93 329C92.6996 329.044 92.373 328.927 92 329C91.6271 329.073 91.3989 328.888 91 329C90.6111 329.109 90.3662 328.835 90 329L93 331V331C93.7407 330.77 94.3681 330.161 95 330C95.6169 329.845 96.3629 330.04 97 330C97.5794 329.965 98.4311 329.891 99 330C99.5834 330.117 100.485 330.715 101 331C101.504 331.243 101.681 331.559 102 332C102.105 332.158 101.969 331.816 102 332C102.031 332.184 102.048 332.819 102 333C101.877 333.404 101.322 333.709 101 334C100.598 334.374 100.482 334.724 100 335L102 336H101L99 335C98.1119 335.41 96.955 335.759 96 336C94.9978 336.263 94.0349 336.901 93 337L92 335C92.272 334.994 92.7302 335.033 93 335C93.4108 334.955 93.5964 335.085 94 335C94.4455 334.907 95.5028 335.137 96 335C96.4855 334.871 96.5406 334.197 97 334L94 333V333H93C92.2697 333.225 91.6061 332.868 91 333C90.4404 333.122 90.574 333.979 90 334C89.4937 334.017 88.4944 334.105 88 334C87.511 333.886 87.4352 333.239 87 333C86.5234 332.764 85.3213 332.408 85 332C84.7685 331.693 84.9799 331.377 85 331C85.0414 330.607 85.7309 330.302 86 330C86.3364 329.607 86.5537 329.278 87 329L85 328L86 327L88 328C88.7974 327.629 89.1376 327.204 90 327C90.8207 326.803 92.1583 327.086 93 327L94 329ZM89 331C89.3838 331.205 89.5611 332.039 90 332C90.5886 331.934 91.4383 331.178 92 331L89 330C88.0055 330.602 88.1816 330.55 89 331V331ZM98 332C97.5839 331.787 97.4685 331.936 97 332C96.3555 332.08 95.6204 331.817 95 332L98 334C99.1551 333.34 98.7874 332.45 98 332V332Z" fill="#F9CA06"/>
<defs>
<linearGradient id="paint0_linear" x1="359.073" y1="304.877" x2="450.36" y2="146.571" gradientUnits="userSpaceOnUse">
<stop offset="0.21" stop-color="white" stop-opacity="0"/>
<stop offset="1" stop-color="white" stop-opacity="0.2"/>
</linearGradient>
<linearGradient id="paint1_linear" x1="382.236" y1="250.627" x2="357.433" y2="293.412" gradientUnits="userSpaceOnUse">
<stop stop-color="#E9EAF2" stop-opacity="0.8"/>
<stop offset="1" stop-color="#E9EAF2" stop-opacity="0"/>
</linearGradient>
</defs>
</svg>
