<svg width="629" height="562" viewBox="0 0 629 562" fill="none" xmlns="http://www.w3.org/2000/svg">
<path opacity="0.4" d="M166 556L9 465C-4.28094 457.311 -2.3431 443.858 13 435L391 216C406.389 207.142 429.719 206.342 443 214L600 305C613.281 312.689 611.343 326.157 596 335L218 554C202.657 562.843 179.281 563.674 166 556Z" fill="#D6D8E5"/>
<path d="M186 544L29 453C15.7036 445.311 17.6568 431.842 33 423L411 204C426.389 195.158 449.627 194.327 463 202L620 293C633.281 300.689 631.343 314.143 616 323L238 542C222.657 550.857 199.296 551.658 186 544Z" fill="#B1B4C4"/>
<path d="M20 440V426L37 432L20 440Z" fill="#B1B4C4"/>
<path d="M629 306V292L616 301L629 306Z" fill="#B1B4C4"/>
<path d="M186 532L29 441C15.7036 433.311 17.6568 419.857 33 411L411 192C426.389 183.143 449.627 182.342 463 190L620 281C633.281 288.689 631.343 302.158 616 311L238 530C222.657 538.842 199.296 539.673 186 532Z" fill="#616E84"/>
<path d="M47.7366 460.195C48.4543 459.782 47.9305 458.533 47.1011 457.099C46.2716 455.665 45.4505 454.588 44.7328 455.001C44.015 455.415 43.6724 457.163 44.5019 458.597C45.3314 460.031 47.0188 460.609 47.7366 460.195Z" fill="#757B89"/>
<path d="M54.8702 464.695C55.5879 464.281 55.9305 462.533 55.1011 461.099C54.2716 459.665 52.5841 459.087 51.8664 459.501C51.1486 459.914 51.6724 461.163 52.5019 462.597C53.3314 464.031 54.1524 465.108 54.8702 464.695Z" fill="#757B89"/>
<path d="M63.7366 468.195C64.4543 467.782 63.9305 466.533 63.1011 465.099C62.2716 463.665 61.4505 462.588 60.7328 463.001C60.015 463.415 59.6724 465.163 60.5019 466.597C61.3314 468.031 63.0188 468.609 63.7366 468.195Z" fill="#757B89"/>
<path d="M70.7366 473.195C71.4543 472.782 70.9305 471.533 70.1011 470.099C69.2716 468.665 68.4505 467.588 67.7328 468.001C67.015 468.415 66.6724 470.163 67.5019 471.597C68.3314 473.031 70.0188 473.609 70.7366 473.195Z" fill="#757B89"/>
<path d="M135.737 510.195C136.454 509.782 135.931 508.533 135.101 507.099C134.272 505.665 133.451 504.588 132.733 505.001C132.015 505.415 131.672 507.163 132.502 508.597C133.331 510.031 135.019 510.609 135.737 510.195Z" fill="#757B89"/>
<path d="M141.87 514.695C142.588 514.281 142.931 512.533 142.101 511.099C141.272 509.665 139.584 509.087 138.866 509.501C138.149 509.914 138.672 511.163 139.502 512.597C140.331 514.031 141.152 515.108 141.87 514.695Z" fill="#757B89"/>
<path d="M150.737 519.195C151.454 518.782 150.931 517.533 150.101 516.099C149.272 514.665 148.451 513.588 147.733 514.001C147.015 514.415 146.672 516.163 147.502 517.597C148.331 519.031 150.019 519.609 150.737 519.195Z" fill="#757B89"/>
<path d="M158.737 523.195C159.454 522.782 158.931 521.533 158.101 520.099C157.272 518.665 156.451 517.588 155.733 518.001C155.015 518.415 154.672 520.163 155.502 521.597C156.331 523.031 158.019 523.609 158.737 523.195Z" fill="#757B89"/>
<path d="M112 499L91 487C90.2866 486.496 90.4065 485.772 90 485C89.5935 484.228 89.0109 482.873 89 482C89 480.282 89.7025 479.262 91 480L112 492C112.713 492.504 112.594 493.228 113 494C113.406 494.772 113.989 496.127 114 497C113.925 498.718 113.222 499.738 112 499Z" fill="#757B89"/>
<path d="M582 340L562 352C560.77 352.691 560 351.674 560 350C560.014 349.172 560.611 348.733 561 348C561.389 347.267 561.318 346.483 562 346L582 334C583.23 333.293 584 334.341 584 336C583.989 336.827 583.387 337.266 583 338C582.613 338.734 582.68 339.516 582 340Z" fill="#757B89"/>
<path d="M552 357L532 369C530.77 369.706 530 368.673 530 367C530.017 366.175 530.611 365.73 531 365C531.389 364.27 531.321 363.481 532 363L552 351C553.23 350.294 554 351.327 554 353C553.99 353.824 553.387 354.269 553 355C552.613 355.731 552.68 356.52 552 357Z" fill="#757B89"/>
<path d="M186 530L29 439C15.7036 431.312 17.6568 417.857 33 409L411 190C426.389 181.143 449.627 180.327 463 188L620 279C633.281 286.688 631.343 300.143 616 309L238 528C222.657 536.857 199.296 537.658 186 530Z" fill="#20232D"/>
<path d="M603 282L542 246V247C534.754 251.164 523.184 251.164 516 247C508.816 242.836 508.77 235.164 516 231L454 196C444.77 190.638 430.307 190.638 421 196L52 409C42.7699 414.362 42.7699 422.638 52 428L201 514C210.307 519.362 224.708 519.362 234 514L603 301C612.292 295.638 612.292 287.362 603 282Z" fill="white"/>
<path opacity="0.5" d="M603 301L234 513C225.6 517.829 212.323 517.925 203 514C202.039 513.599 201.903 513.518 201 513L52 427C49.9384 425.875 48.3716 424.902 47 423C43.4923 418.048 45.0153 412.017 52 408L421 196C430.308 190.665 444.692 190.665 454 196L516 231H515C507.769 235.155 507.769 241.83 515 246C522.231 250.17 534.815 250.155 542 246L603 282C612.323 287.381 612.292 295.649 603 301Z" fill="url(#paint0_linear)"/>
<path d="M525 246C528.866 246 532 244.209 532 242C532 239.791 528.866 238 525 238C521.134 238 518 239.791 518 242C518 244.209 521.134 246 525 246Z" fill="#2B303F"/>
<path opacity="0.1" d="M523 243C522.754 242.927 522.15 242.175 522 242C521.85 241.825 522 242.213 522 242C522 241.787 521.85 241.175 522 241C522.15 240.825 522.754 240.073 523 240C523.644 239.734 524.278 240 525 240C525.722 240 526.356 239.734 527 240C527.253 240.067 527.844 240.824 528 241C528.156 241.175 528 241.783 528 242C528 242.217 528.156 241.824 528 242C527.844 242.175 527.253 242.933 527 243C526.356 243.266 525.722 243 525 243C524.278 243 523.644 243.266 523 243Z" fill="white"/>
<path d="M550 271L547 270L551 267L554 268L550 271Z" fill="#E9EAF2"/>
<path d="M554 273L551 271L557 268L560 270L554 273Z" fill="#E9EAF2"/>
<path d="M557 276L554 274L563 269L566 271L557 276Z" fill="#E9EAF2"/>
<path d="M561 278L558 276L570 269L573 271L561 278Z" fill="#E9EAF2"/>
<path d="M572 284L568 282L576 277L580 279L572 284Z" fill="#E9EAF2"/>
<path d="M577 287L573 285L581 280L585 282L577 287Z" fill="#E9EAF2"/>
<path d="M583 290L579 288L587 283L591 285L583 290Z" fill="#E9EAF2"/>
<path d="M410 244L391 233C388.383 231.44 388.987 228.779 392 227L409 216C410.542 215.113 412.234 215.076 414 215C415.766 214.924 416.391 215.249 418 216L437 227C439.602 228.56 439.013 231.221 436 233L419 244C417.457 244.882 415.765 244.924 414 245C412.235 245.076 411.61 244.747 410 244Z" fill="#D9F9F2"/>
<path d="M539 318L428 254C425.37 252.461 425.97 249.754 429 248L446 237C447.557 236.129 449.218 236.075 451 236C452.782 235.925 454.376 236.262 456 237L567 301C569.63 302.539 569.045 305.245 566 307L549 318C547.439 318.867 545.783 318.925 544 319C542.217 319.075 540.628 318.733 539 318Z" fill="#D9F9F2"/>
<path d="M371 266L352 255C349.397 253.439 349.986 250.78 353 249L370 238C371.542 237.113 373.233 237.076 375 237C376.767 236.924 377.391 237.248 379 238L398 249C400.603 250.561 400.014 253.22 397 255L380 266C378.46 266.89 376.766 266.916 375 267C373.234 267.084 372.614 266.74 371 266Z" fill="#D9F9F2"/>
<path d="M500 341L389 277C386.37 275.461 386.955 272.755 390 271L407 260C408.56 259.13 410.216 259.075 412 259C413.784 258.925 415.373 259.264 417 260L528 324C530.63 325.539 530.045 328.246 527 330L510 341C508.439 341.867 506.783 341.925 505 342C503.216 342.075 501.628 341.733 500 341Z" fill="#D9F9F2"/>
<g opacity="0.6">
<path opacity="0.6" d="M333 287L314 276C311.397 274.492 311.987 271.718 315 270L332 260C333.539 259.143 335.236 259.073 337 259C338.764 258.927 339.394 259.274 341 260L360 271C362.603 272.507 361.998 275.281 359 277L342 287C340.457 287.848 338.763 287.932 337 288C335.237 288.068 334.605 287.727 333 287Z" fill="#E9EAF2"/>
<path opacity="0.6" d="M462 362L351 298C348.37 296.461 348.955 293.754 352 292L369 281C370.56 280.13 372.216 280.075 374 280C375.784 279.925 377.373 280.263 379 281L490 345C492.63 346.539 492.03 349.245 489 351L472 362C470.442 362.866 468.781 362.925 467 363C465.219 363.075 463.625 362.733 462 362Z" fill="#E9EAF2"/>
</g>
<path d="M294 311L275 300C272.37 298.439 271.97 295.779 275 294L293 283C294.558 282.119 296.218 282.073 298 282C299.782 281.927 301.377 282.25 303 283L322 294C324.63 295.561 324.045 298.221 321 300L304 311C302.449 311.876 300.773 311.924 299 312C297.227 312.076 295.618 311.74 294 311Z" fill="#E9EAF2"/>
<path d="M423 385L312 321C309.37 319.461 309.97 316.754 313 315L330 304C331.557 303.129 333.218 303.075 335 303C336.782 302.925 338.376 303.262 340 304L451 368C453.63 369.539 453.03 372.245 450 374L433 385C431.442 385.866 429.781 385.925 428 386C426.219 386.075 424.625 385.733 423 385Z" fill="#E9EAF2"/>
<path d="M255 333L236 322C233.397 320.441 233.986 317.777 237 316L254 305C255.544 304.12 257.234 304.073 259 304C260.766 303.927 261.391 304.251 263 305L282 316C284.603 317.559 284.014 320.223 281 322L264 333C262.452 333.871 260.766 333.935 259 334C257.234 334.065 256.606 333.755 255 333Z" fill="#E9EAF2"/>
<path d="M385 407L274 343C271.37 341.461 271.97 338.754 275 337L292 326C293.559 325.129 295.216 325.075 297 325C298.784 324.925 300.373 325.263 302 326L413 390C415.63 391.538 415.045 394.246 412 396L395 407C393.45 407.869 391.775 407.915 390 408C388.225 408.085 386.626 407.716 385 407Z" fill="#E9EAF2"/>
<g opacity="0.6">
<path opacity="0.6" d="M217 354L198 343C195.398 341.492 195.987 338.719 199 337L216 327C217.544 326.149 219.234 326.071 221 326C222.766 325.929 223.392 326.275 225 327L244 338C246.617 339.508 246.013 342.281 243 344L226 354C224.456 354.85 222.765 354.929 221 355C219.235 355.071 218.609 354.724 217 354Z" fill="#E9EAF2"/>
<path opacity="0.6" d="M346 429L235 365C232.369 363.461 232.954 360.755 236 359L253 348C254.56 347.13 256.215 347.075 258 347C259.785 346.925 261.372 347.263 263 348L374 412C376.631 413.539 376.046 416.245 373 418L356 429C354.444 429.859 352.775 429.925 351 430C349.225 430.075 347.622 429.725 346 429Z" fill="#E9EAF2"/>
</g>
<path d="M178 377L159 366C156.397 364.44 157.001 361.778 160 360L177 349C178.542 348.119 180.236 348.073 182 348C183.764 347.927 184.394 348.25 186 349L205 360C207.603 361.56 206.999 364.222 204 366L187 377C185.459 377.883 183.764 377.924 182 378C180.236 378.076 179.607 377.748 178 377Z" fill="#E9EAF2"/>
<path d="M307 452L196 388C193.37 386.461 193.955 383.754 197 382L214 371C215.56 370.13 217.216 370.075 219 370C220.784 369.925 222.373 370.264 224 371L335 435C337.63 436.539 337.03 439.246 334 441L317 452C315.446 452.861 313.775 452.925 312 453C310.225 453.075 308.621 452.728 307 452Z" fill="#E9EAF2"/>
<g opacity="0.6">
<path opacity="0.6" d="M140 399L121 388C118.395 386.492 118.999 383.719 122 382L139 372C140.546 371.149 142.233 371.071 144 371C145.767 370.929 146.39 371.275 148 372L167 383C169.605 384.508 169.016 387.281 166 389L149 399C147.461 399.839 145.756 399.935 144 400C142.244 400.065 141.599 399.722 140 399Z" fill="#E9EAF2"/>
<path opacity="0.6" d="M269 474L158 410C155.37 408.461 155.97 405.754 159 404L176 393C177.556 392.129 179.218 392.075 181 392C182.782 391.925 184.376 392.262 186 393L297 457C299.63 458.539 299.045 461.245 296 463L279 474C277.442 474.866 275.781 474.925 274 475C272.219 475.075 270.625 474.733 269 474Z" fill="#E9EAF2"/>
</g>
<g opacity="0.6">
<path opacity="0.6" d="M101 421L82 410C79.3972 408.494 79.9863 405.717 83 404L100 394C101.544 393.15 103.234 393.071 105 393C106.766 392.929 107.391 393.276 109 394L128 405C130.603 406.506 130.014 409.283 127 411L110 421C108.461 421.861 106.766 421.916 105 422C103.234 422.084 102.615 421.712 101 421Z" fill="#E9EAF2"/>
<path opacity="0.6" d="M230 496L119 432C116.355 430.461 116.97 427.755 120 426L137 415C138.559 414.129 140.216 414.075 142 414C143.784 413.925 145.373 414.262 147 415L258 479C260.63 480.539 260.045 483.245 257 485L240 496C238.438 496.864 236.783 496.928 235 497C233.217 497.072 231.627 496.735 230 496Z" fill="#E9EAF2"/>
</g>
<path d="M559 144L472 94C471.17 93.4278 470.998 93.1566 470 93C469.002 92.8434 467.968 92.7098 467 93C466.628 93.1449 466.311 93.7519 466 94L456 99L463 108V144C463.167 147.095 464.443 150.314 466 153C467.557 155.686 469.389 157.301 472 159L499 176L507 193L499 206L510 200L520 188L552 206L554 216L565 210H566C566.839 209.335 566.58 207.981 567 207C567.42 206.019 568.101 205.061 568 204V159C567.849 155.882 566.563 153.708 565 151C563.437 148.292 561.633 145.707 559 144Z" fill="#F5F5F5"/>
<path opacity="0.2" d="M559 144L472 94C471.17 93.4278 470.998 93.1566 470 93C469.002 92.8434 467.968 92.7098 467 93C466.628 93.1449 466.311 93.7519 466 94L456 99L463 108V144C463.167 147.095 464.443 150.314 466 153C467.557 155.686 469.389 157.301 472 159L499 176L507 193L499 206L510 200L520 188L552 206L554 216L565 210H566C566.839 209.335 566.58 207.981 567 207C567.42 206.019 568.101 205.061 568 204V159C567.849 155.882 566.563 153.708 565 151C563.437 148.292 561.633 145.707 559 144Z" fill="#160032"/>
<path d="M548 150L462 100C457.062 97.1698 453 99.3395 453 105V150C453.166 153.077 454.45 156.329 456 159C457.55 161.671 459.4 163.311 462 165L489 182L499 206L509 194L548 215C552.952 217.83 557 215.661 557 210V165C556.845 161.909 555.553 158.685 554 156C552.447 153.315 550.614 151.694 548 150Z" fill="#F5F5F5"/>
<path d="M480.91 147.203C483.308 145.833 483.585 141.868 481.219 137.813C478.853 133.759 474.739 131.15 472.342 132.52C469.944 133.89 470.17 138.719 472.536 142.773C474.902 146.828 478.512 148.573 480.91 147.203Z" fill="#0EDDAB"/>
<path d="M504.886 162.228C507.286 160.863 507.069 156.034 504.711 151.975C502.353 147.916 498.747 146.164 496.347 147.529C493.946 148.894 493.66 152.858 496.018 156.918C498.376 160.977 502.485 163.593 504.886 162.228Z" fill="#0EDDAB"/>
<path d="M531.91 177.203C534.308 175.833 534.585 171.868 532.219 167.813C529.853 163.759 525.739 161.15 523.342 162.52C520.944 163.89 521.17 168.719 523.536 172.773C525.902 176.828 529.512 178.573 531.91 177.203Z" fill="#0EDDAB"/>
<path d="M492 56L402 2.00002C399.536 0.57705 396.707 0.231086 395 1.00002C394.764 1.10735 394.215 1.85444 394 2.00002L385 7.00002L392 17V86C392 92.1869 396.65 99.9243 402 103L437 124L441 135L437 155L447 149L457 135L488 153L489 162L499 156C501.068 155.116 502 153.412 502 150V73C502.018 66.8132 497.341 59.0934 492 56Z" fill="#EDEEF7"/>
<path d="M482 60L392 7.99999C386.675 4.92497 382 7.84994 382 14V92C382 98.15 386.657 105.943 392 109L427 129L437 154L447 140L482 161C487.334 164.075 492 161.15 492 155V77C491.982 70.8499 487.351 63.075 482 60Z" fill="#F8F9FF"/>
<path d="M415 53L413 54L416 57L415 53Z" fill="#009370"/>
<path d="M415 54V86C415.001 86.225 414.923 86.7889 415 87C415.042 87.1346 414.933 87.8759 415 88C415.196 88.3958 415.629 87.7616 416 88L460 114C460.123 114.095 459.846 113.991 460 114C460.154 114.009 460.867 114.079 461 114C461.076 113.943 460.959 114.086 461 114C461.073 113.844 461.004 113.173 461 113V81C460.999 80.7761 461.069 80.213 461 80C460.953 79.8599 461.066 79.1321 461 79C460.799 78.6052 460.371 79.24 460 79L416 53C415.875 52.9059 416.156 53.0071 416 53C415.844 52.9929 415.133 52.9176 415 53C414.928 53.0579 415.045 52.9186 415 53C414.921 53.1642 414.994 53.8177 415 54Z" fill="#009370"/>
<path d="M461 114L459 115V112L461 114Z" fill="#008C6A"/>
<path d="M413 55V87C413.004 87.2249 412.926 87.7878 413 88C413.045 88.1336 412.936 88.8745 413 89C413.196 89.3961 413.629 88.7613 414 89L458 115C458.124 115.093 457.846 114.993 458 115C458.154 115.007 458.868 115.081 459 115C459.074 114.944 458.957 115.083 459 115C459.078 114.845 459.005 114.174 459 114V82C459 81.7753 459.074 81.212 459 81C458.813 80.4426 458.489 80.3235 458 80L414 54C413.876 53.9071 414.154 54.0082 414 54C413.846 53.9918 413.133 53.9207 413 54C412.924 54.0571 413.041 53.914 413 54C412.92 54.1546 412.997 54.8255 413 55Z" fill="#0EDDAB"/>
<path opacity="0.05" d="M436 84L459 80H461V114L459 115L436 84Z" fill="#160032"/>
<path opacity="0.05" d="M436 84L413 54V88L436 84Z" fill="#160032"/>
<path d="M247 215C246.903 214.76 246.21 214.151 246 214C245.58 213.78 245 213.5 245 213L174 193L103 296C102.505 296.553 102.34 296.339 102 297C101.784 297.414 101.146 298.556 101 299C100.782 299.649 101.01 300.315 101 301V404C100.988 404.552 100.768 405.499 101 406C101.136 406.265 101.761 406.822 102 407C102.418 407.258 102.51 407.023 103 407C103.49 406.977 104.607 407.296 105 407L243 326C244.535 324.965 246.411 323.762 247 322C247.237 321.332 246.993 320.709 247 320V216C247.013 215.45 247.233 215.497 247 215Z" fill="#009370"/>
<path d="M246 214L250 217L244 221L246 214Z" fill="#CEB95F"/>
<path d="M107 410L102 407L109 402L107 410Z" fill="#008C6A"/>
<path d="M174 193L178 196L251 217C251 217 248.879 216.072 247.5 215C246.628 214.322 245 213 245 213L174 193Z" fill="#009370"/>
<path d="M251 219V323C250.989 323.705 251.233 324.335 251 325C250.856 325.422 250.207 325.605 250 326C249.378 327.257 248.177 328.242 247 329L109 410C108.607 410.298 107.492 409.976 107 410C106.508 410.024 106.42 410.259 106 410C105.764 409.819 105.133 409.267 105 409C104.764 408.504 104.984 407.549 105 407V304C105.01 303.316 104.782 302.648 105 302C105.148 301.558 105.785 301.414 106 301C106.626 299.736 107.812 298.755 109 298L247 217L245 219C246.106 218.369 249.33 216.495 250 217C250.236 217.181 250.867 217.733 251 218C251.234 218.499 251.02 218.449 251 219Z" fill="#0EDDAB"/>
<path opacity="0.12" d="M106 409L178 313L251 326V336L105 420L106 409Z" fill="#160032"/>
<path opacity="0.05" d="M178 313L106 301L99 299L96 417L106 410L178 313Z" fill="#160032"/>
<path opacity="0.05" d="M178 312L250 217L257 207L260 321L250 325L178 312Z" fill="#160032"/>
<path d="M106 301L179 196L251 217L179 313L106 301Z" fill="#0EDDAB"/>
<path opacity="0.3" d="M251 217L235 239L179 313L122 303L106 301L122 277L163 219L179 196L194 201L235 212L251 217Z" fill="#160032"/>
<path d="M234 177V239L178 313L122 303V242L234 177Z" fill="#FAFBFF"/>
<path d="M160 269L132 285V253L160 237V269Z" fill="#E9EAF2"/>
<path d="M192 250L164 266V234L192 218V250Z" fill="#E9EAF2"/>
<path d="M225 231L197 247V215L225 199V231Z" fill="#E9EAF2"/>
<path d="M225 245L132 298V292L225 239V245Z" fill="#E9EAF2"/>
<path d="M211 259V265L139 306L132 305L211 259Z" fill="#E9EAF2"/>
<path d="M197 278V284L155 308L146 307L197 278Z" fill="#E9EAF2"/>
<path d="M190 294V297L187 301L170 311L162 310L190 294Z" fill="#E9EAF2"/>
<path d="M266 282L269 283L265 288L266 282Z" fill="#009370"/>
<path d="M267 283V329C266.999 329.317 267.111 329.702 267 330C266.939 330.19 267.096 330.825 267 331C266.718 331.558 265.532 331.664 265 332L203 368C202.824 368.134 202.221 367.987 202 368C201.779 368.013 201.191 368.112 201 368C200.891 367.92 201.058 368.121 201 368C200.895 367.779 200.994 367.244 201 367V321C201.001 320.684 200.901 320.3 201 320C201.068 319.803 200.905 319.186 201 319C201.288 318.443 202.468 318.338 203 318L265 282C265.179 281.867 265.777 282.01 266 282C266.223 281.99 266.81 281.884 267 282C267.104 282.082 266.936 281.885 267 282C267.113 282.231 267.008 282.743 267 283Z" fill="#009370"/>
<path d="M201 368L204 369V365L201 368Z" fill="#DDB545"/>
<path d="M269 284V330C268.994 330.317 269.106 330.701 269 331C268.935 331.188 269.092 331.823 269 332C268.719 332.558 267.532 332.664 267 333L205 369C204.822 369.131 204.221 368.99 204 369C203.779 369.01 203.189 369.114 203 369C202.894 368.921 203.061 369.117 203 369C202.888 368.781 202.993 368.245 203 368V322C203 321.683 202.894 321.299 203 321C203.269 320.214 204.299 319.456 205 319L267 283C267.177 282.869 267.779 283.012 268 283C268.221 282.988 268.81 282.888 269 283C269.109 283.08 268.942 282.879 269 283C269.115 283.218 269.004 283.754 269 284Z" fill="#0EDDAB"/>
<path opacity="0.12" d="M203 369L236 326L269 332V336L203 374V369Z" fill="#160032"/>
<path opacity="0.05" d="M236 326L203 321L200 320L199 373L203 370L236 326Z" fill="#160032"/>
<path opacity="0.05" d="M236 326L269 283L272 279L273 330L269 332L236 326Z" fill="#160032"/>
<defs>
<linearGradient id="paint0_linear" x1="327.587" y1="516.803" x2="327.587" y2="191.999" gradientUnits="userSpaceOnUse">
<stop offset="0.21" stop-color="white" stop-opacity="0"/>
<stop offset="1" stop-color="white" stop-opacity="0.2"/>
</linearGradient>
</defs>
</svg>
