<svg width="342" height="236" viewBox="0 0 342 236" fill="none" xmlns="http://www.w3.org/2000/svg">
<path fill-rule="evenodd" clip-rule="evenodd" d="M84.4151 209.977C147.235 202.294 217.114 212.082 266.278 179.144C315.773 145.984 327.639 91.1824 337.232 41.5913C346.107 -4.29174 340.3 -50.1018 319.121 -92.282C297.535 -135.271 272.708 -186.241 216.173 -199.779C160.158 -213.193 107.939 -160.136 48.5136 -157.272C-18.2229 -154.055 -80.8074 -206.271 -141.881 -182.876C-202.867 -159.515 -235.193 -98.8981 -240.096 -46.6787C-244.715 2.52385 -189.15 37.6335 -167.148 82.8407C-144.02 130.362 -162.233 197.299 -108.059 224.767C-54.0283 252.162 18.9565 217.983 84.4151 209.977Z" fill="#F3FDFB"/>
</svg>
