<svg width="84" height="90" viewBox="0 0 84 90" fill="none" xmlns="http://www.w3.org/2000/svg">
<path d="M8 38.0001L70 2.00007C70.5993 1.58602 71.2793 1.11338 72 1.00007C72.7207 0.886757 73.3015 0.790056 74 1.00007C74.2683 1.10494 74.7752 1.82052 75 2.00007L82 6.00007L77 12.0001V38.0001C76.8797 40.2392 76.1239 42.0564 75 44.0001C73.8761 45.9437 71.8852 47.771 70 49.0001L51 61.0001L45 73.0001L51 83.0001L43 78.0001L36 70.0001L12 82.0001L11 90.0001L3 85.0001C2.39413 84.519 1.30308 84.7098 1 84.0001C0.696922 83.2903 0.927376 81.7678 1 81.0001V49.0001C1.10934 46.7442 1.87166 44.9598 3 43.0001C4.12834 41.0403 6.09939 39.2352 8 38.0001Z" fill="#F5F5F5"/>
<path opacity="0.2" d="M8 38.0001L70 2.00007C70.5993 1.58602 71.2793 1.11338 72 1.00007C72.7207 0.886757 73.3015 0.790056 74 1.00007C74.2683 1.10494 74.7752 1.82052 75 2.00007L82 6.00007L77 12.0001V38.0001C76.8797 40.2392 76.1239 42.0564 75 44.0001C73.8761 45.9437 71.8852 47.771 70 49.0001L51 61.0001L45 73.0001L51 83.0001L43 78.0001L36 70.0001L12 82.0001L11 90.0001L3 85.0001C2.39413 84.519 1.30308 84.7098 1 84.0001C0.696922 83.2903 0.927376 81.7678 1 81.0001V49.0001C1.10934 46.7442 1.87166 44.9598 3 43.0001C4.12834 41.0403 6.09939 39.2352 8 38.0001Z" fill="black"/>
<path d="M15 41.9999L78 5.99994C81.5607 3.92693 84 5.85391 84 9.99994V41.9999C83.8804 44.2537 83.1179 46.0436 82 47.9999C80.8821 49.9563 79.8751 51.7629 78 52.9999L58 64.9999L51 81.9999L43 73.9999L15 88.9999C11.4286 91.073 9 89.146 9 84.9999V52.9999C9.1117 50.7358 9.87975 48.9665 11 46.9999C12.1203 45.0334 13.1152 43.2405 15 41.9999Z" fill="#F5F5F5"/>
<path d="M63.8778 41.7509C62.202 40.7876 61.6189 37.6725 63.4198 34.567C65.2206 31.4615 68.7232 29.5416 70.3991 30.5049C72.0749 31.4682 71.2893 34.95 69.4885 38.0555C67.6877 41.161 65.5536 42.7143 63.8778 41.7509Z" fill="#0EDDAB"/>
<path d="M46.0292 51.2723C44.3515 50.3123 45.1302 46.829 46.9248 43.7199C48.7195 40.6108 50.8504 39.0534 52.5282 40.0134C54.2059 40.9734 54.7951 44.0874 53.0005 47.1964C51.2058 50.3055 47.707 52.2324 46.0292 51.2723Z" fill="#0EDDAB"/>
<path d="M26.0108 62.2526C24.335 61.2892 24.6189 58.6725 26.4198 55.567C28.2206 52.4615 30.8563 50.0432 32.5321 51.0065C34.208 51.9699 34.2893 55.95 32.4885 59.0555C30.6877 62.161 27.6867 63.2159 26.0108 62.2526Z" fill="#0EDDAB"/>
</svg>
