<svg width="148" height="172" viewBox="0 0 148 172" fill="none" xmlns="http://www.w3.org/2000/svg">
<path opacity="0.4" d="M74 159L50 146C48.2487 145.008 48.9817 143.147 51 142L66 133L97 150L81 159C78.9777 160.147 75.7553 159.992 74 159Z" fill="#D6D8E5"/>
<path d="M76 158L52 145C50.2522 144.008 50.9771 142.147 53 141L68 132L99 149L83 158C80.9771 159.147 77.7478 158.988 76 158Z" fill="#B1B4C4"/>
<path d="M98 149V148L97 149H98Z" fill="#B1B4C4"/>
<path d="M51 143V142L52 143H51Z" fill="#B1B4C4"/>
<path d="M76 157L52 144C50.2527 143.008 50.9776 141.147 53 140L68 131L99 148L83 157C80.9655 158.147 77.7474 157.992 76 157Z" fill="#D6D8E5"/>
<path d="M68 131L64 119L95 137L98 149L68 131Z" fill="#9EA1AF"/>
<path d="M97 149L98 148L97 147V149Z" fill="#9EA1AF"/>
<path d="M67 131L63 119L94 137L97 149L67 131Z" fill="#B1B4C4"/>
<path d="M145 170L26 102C24.3333 101.042 23 98.2116 23 95.9999V3.99995C23 1.78829 24.3333 0.0418271 26 0.999947L145 68.9999C146.667 69.9581 148 72.7883 148 74.9999V167C147.988 169.212 146.667 170.958 145 170Z" fill="#160032"/>
<path d="M146 171L147 170V166L146 171Z" fill="#C4C7D6"/>
<path d="M23 2L24 1L26 2C26 2 24.0457 2.00886 24 2C23.9543 1.99114 23 2 23 2Z" fill="#B1B4C4"/>
<path d="M144 171L25 103C23.3292 102.046 22 99.2116 22 97V4.99995C22 2.78827 23.3292 1.04182 25 1.99995L144 70C145.671 70.9581 147 73.7883 147 76V168C147 170.196 145.691 171.958 144 171Z" fill="#E4E7F2"/>
<path d="M144 171L25 103C23.3293 102.042 22 99.2116 22 96.9999V4.99995C22 2.78829 23.3293 1.04183 25 1.99995L144 69.9999C145.667 70.9541 147 73.7883 147 75.9999V168C147 170.212 145.667 171.938 144 171Z" fill="#160032"/>
<path d="M146 165L24 94.9999V4.99991C24 4.08418 25.2009 3.54004 26 3.99991L145 72.9999C145.42 73.2743 145.749 73.5666 146 73.9999C146.251 74.4333 145.972 75.5004 146 75.9999V165Z" fill="#220D3D"/>
<path opacity="0.4" d="M133 149L38 92.9999C36.0257 91.8632 34 89.6336 34 86.9999V14.9999C34 12.3662 36.0257 10.8592 38 11.9999L133 67.9999C134.974 69.1407 137 71.3702 137 73.9999V146C136.996 148.63 134.97 150.141 133 149Z" fill="#D6D8E5"/>
<path d="M128 139L33 82.9999C31.0215 81.8592 29 79.6336 29 76.9999V4.99992C29 2.36622 31.0255 0.859183 33 1.99992L128 57.9999C129.974 59.1407 132 61.3662 132 63.9999V136C132 138.634 129.974 140.141 128 139Z" fill="#220D3D"/>
<path d="M132 70.9999L29 10.9999V4.99995C29 2.34711 31.0255 0.850921 33 1.99995L128 59C129.974 60.149 132 62.3471 132 65V70.9999Z" fill="#0EDDAB"/>
<path d="M35.8697 11.963C36.3483 11.6873 36.2878 10.6888 35.7346 9.73273C35.1814 8.77666 34.345 8.22511 33.8665 8.50081C33.3879 8.7765 33.4484 9.77505 34.0016 10.7311C34.5548 11.6872 35.3912 12.2387 35.8697 11.963Z" fill="white"/>
<path d="M45.8638 17.9687C46.3429 17.694 46.2844 16.6953 45.7331 15.7381C45.1819 14.781 44.3466 14.2278 43.8675 14.5025C43.3884 14.7773 43.4469 15.7759 43.9982 16.7331C44.5495 17.6903 45.3848 18.2435 45.8638 17.9687Z" fill="white"/>
<path d="M40.8697 14.963C41.3483 14.6873 41.2878 13.6888 40.7346 12.7327C40.1814 11.7767 39.345 11.2251 38.8665 11.5008C38.3879 11.7765 38.4484 12.775 39.0016 13.7311C39.5548 14.6872 40.3912 15.2387 40.8697 14.963Z" fill="white"/>
<path d="M43 78L38 75V55L43 58V78Z" fill="#FCA70D"/>
<path d="M62 89L57 86V51L62 54V89Z" fill="#FCA70D"/>
<path d="M53 83L48 80V53L53 56V83Z" fill="#0EDDAB"/>
<path d="M71 94L66 91V43L71 46V94Z" fill="#0EDDAB"/>
<path d="M123 82L83 59V53L123 76V82Z" fill="#E9EAF2"/>
<path d="M123 89L83 66V63L123 86V89Z" fill="#E9EAF2"/>
<path d="M123 94L83 71V68L123 91V94Z" fill="#E9EAF2"/>
<path d="M117 97L83 77V74L117 94V97Z" fill="#E9EAF2"/>
<path d="M112 99L83 82V79L112 96V99Z" fill="#E9EAF2"/>
<path d="M100 105L88 98V95L100 102V105Z" fill="#E9EAF2"/>
<path d="M87 97L83 95V92L87 94V97Z" fill="#FCA70D"/>
<path d="M100 112L88 105V102L100 109V112Z" fill="#E9EAF2"/>
<path d="M87 104L83 102V99L87 101V104Z" fill="#0EDDAB"/>
<path d="M122 117L110 110V107L122 114V117Z" fill="#E9EAF2"/>
<path d="M109 110L105 108V105L109 107V110Z" fill="#0EDDAB"/>
<path d="M122 124L110 117V114L122 121V124Z" fill="#E9EAF2"/>
<path d="M109 117L105 115V112L109 114V117Z" fill="#FCA70D"/>
<path d="M34 125L6 108C4.02816 106.851 2 103.648 2 101V53C2 50.3483 4.03215 48.8514 6 50L34 67C35.9678 68.1485 38 71.3523 38 74V122C38 124.672 35.9678 126.161 34 125Z" fill="#6A5E80"/>
<path d="M35 126L37 125L35 121V126Z" fill="#6A5E80"/>
<path d="M1 51L3 50V53L1 51Z" fill="#6A5E80"/>
<path d="M32 126L4 109C2.03303 107.855 0 104.665 0 102V53.9999C0 51.3511 2.03303 49.8509 4 50.9999L32 67.9999C33.967 69.149 36 72.3471 36 74.9999V123C35.984 125.637 33.951 127.145 32 126Z" fill="#220D3D"/>
<path d="M30 80L5 65V58L30 73V80Z" fill="#0EDDAB"/>
<path d="M13 85L6 81V74L13 78V85Z" fill="#0EDDAB"/>
<path d="M22 90L15 86V79L22 83V90Z" fill="#0EDDAB"/>
<path d="M30 95L23 91V84L30 88V95Z" fill="#0EDDAB"/>
<path d="M13 96L6 92V85L13 89V96Z" fill="#0EDDAB"/>
<path d="M22 102L15 98V91L22 95V102Z" fill="#0EDDAB"/>
<path d="M30 107L23 103V96L30 100V107Z" fill="#0EDDAB"/>
<path d="M13 108L6 104V97L13 101V108Z" fill="#0EDDAB"/>
<path d="M22 113L15 109V102L22 106V113Z" fill="#0EDDAB"/>
<path d="M30 118L23 114V107L30 111V118Z" fill="#0EDDAB"/>
</svg>
