<svg width="150" height="174" viewBox="0 0 150 174" fill="none" xmlns="http://www.w3.org/2000/svg">
<path opacity="0.4" d="M76 162L52 148C50.2474 146.973 50.9788 145.187 53 144L68 135L99 153L83 162C80.9745 163.187 77.7526 163.04 76 162Z" fill="#D6D8E5"/>
<path d="M78 161L54 147C52.2514 145.973 52.9828 144.187 55 143L70 134L101 152L85 161C82.9785 162.183 79.7486 162.044 78 161Z" fill="#B1B4C4"/>
<path d="M53 145V144L54 145H53Z" fill="#B1B4C4"/>
<path d="M78 160L54 146C52.2514 144.973 52.9828 143.183 55 142L70 133L101 151L85 160C82.9785 161.192 79.7486 161.023 78 160Z" fill="#D6D8E5"/>
<path d="M70 132L66 120L97 138L100 150L70 132Z" fill="#9EA1AF"/>
<path d="M69 133L65 121L96 139L99 151L69 133Z" fill="#B1B4C4"/>
<path d="M147 172L28 103C26.3315 102.029 25 99.236 25 97V3.99997C25 1.76395 26.3315 0.0288987 28 0.99997L147 70C148.669 70.9668 150 73.7597 150 76V169C150 171.219 148.669 172.971 147 172Z" fill="#C4C7D6"/>
<path d="M146 173L27 104C25.3315 103.029 24 100.236 24 98V4.99997C24 2.75968 25.3315 1.03315 27 1.99997L146 71C147.668 71.971 149 74.7597 149 77V170C149.004 172.24 147.668 173.967 146 173Z" fill="#E4E7F2"/>
<path d="M146 173L27 104C25.3315 103.029 24 100.236 24 97.9999V4.99993C24 2.76407 25.3315 1.02893 27 1.99993L146 70.9999C147.669 71.9667 149 74.7598 149 76.9999V170C149 172.244 147.669 173.971 146 173Z" fill="#160032"/>
<path opacity="0.3" d="M148 167L26 96V4.99997C26 4.06941 27.1998 3.5475 28 3.99997L147 74C147.422 74.2766 147.748 74.5609 148 75C148.252 75.4391 147.973 76.4936 148 77V167Z" fill="url(#paint0_linear)"/>
<path d="M99 62L91 57V54L99 59V62Z" fill="#E5D6E4"/>
<path d="M118 72L101 62V59L118 69V72Z" fill="#F4CE2C"/>
<path d="M99 71L91 66V63L99 68V71Z" fill="#E5D6E4"/>
<path d="M107 75L101 72V69L107 72V75Z" fill="#4D3BFF"/>
<path d="M99 76L91 71V68L99 73V76Z" fill="#E5D6E4"/>
<path d="M111 81L101 76V73L111 78V81Z" fill="#4D3BFF"/>
<path d="M99 81L91 76V73L99 78V81Z" fill="#E5D6E4"/>
<path d="M126 96L101 81V78L126 93V96Z" fill="white"/>
<path d="M99 67L91 62V59L99 64V67Z" fill="#E5D6E4"/>
<path d="M132 85L101 67V64L132 82V85Z" fill="#E5D6E4"/>
<path d="M99 85L91 80V77L99 82V85Z" fill="#E5D6E4"/>
<path d="M128 102L101 86V83L128 99V102Z" fill="#0EDDAB"/>
<path d="M99 96L91 91V88L99 93V96Z" fill="#E5D6E4"/>
<path d="M133 114L101 96V93L133 111V114Z" fill="#E5D6E4"/>
<path d="M99 100L91 95V92L99 97V100Z" fill="#E5D6E4"/>
<path d="M111 106L101 101V98L111 103V106Z" fill="#0EDDAB"/>
<path d="M99 105L91 100V97L99 102V105Z" fill="#E5D6E4"/>
<path d="M121 117L101 106V103L121 114V117Z" fill="#4D3BFF"/>
<path d="M99 90L91 85V82L99 87V90Z" fill="#E5D6E4"/>
<path d="M105 93L101 91V88L105 90V93Z" fill="#4D3BFF"/>
<path d="M99 110L91 105V102L99 107V110Z" fill="#E5D6E4"/>
<path d="M114 117L101 110V107L114 114V117Z" fill="#0EDDAB"/>
<path d="M99 119L91 114V111L99 116V119Z" fill="#E5D6E4"/>
<path d="M119 130L101 120V117L119 127V130Z" fill="white"/>
<path d="M99 124L91 119V116L99 121V124Z" fill="#E5D6E4"/>
<path d="M103 125L101 124V121L103 122V125Z" fill="#E5D6E4"/>
<path d="M99 128L91 123V120L99 125V128Z" fill="#E5D6E4"/>
<path d="M112 135L101 129V126L112 132V135Z" fill="#F4CE2C"/>
<path d="M99 114L91 109V106L99 111V114Z" fill="#E5D6E4"/>
<path d="M116 123L101 115V112L116 120V123Z" fill="#4D3BFF"/>
<path d="M47 33L39 28V25L47 30V33Z" fill="#E5D6E4"/>
<path d="M83 53L49 33V30L83 50V53Z" fill="#0EDDAB"/>
<path d="M47 42L39 37V34L47 39V42Z" fill="#E5D6E4"/>
<path d="M72 55L49 42V39L72 52V55Z" fill="#F4CE2C"/>
<path d="M47 47L39 42V39L47 44V47Z" fill="#E5D6E4"/>
<path d="M77 63L49 47V44L77 60V63Z" fill="white"/>
<path d="M47 51L39 46V43L47 48V51Z" fill="#E5D6E4"/>
<path d="M69 63L49 52V49L69 60V63Z" fill="#E5D6E4"/>
<path d="M47 37L39 32V29L47 34V37Z" fill="#E5D6E4"/>
<path d="M66 48L49 38V35L66 45V48Z" fill="#4D3BFF"/>
<path d="M47 56L39 51V48L47 53V56Z" fill="#E5D6E4"/>
<path d="M59 63L49 57V54L59 60V63Z" fill="#0EDDAB"/>
<path d="M47 65L39 60V57L47 62V65Z" fill="#E5D6E4"/>
<path d="M81 84L49 66V63L81 81V84Z" fill="#F4CE2C"/>
<path d="M47 70L39 65V62L47 67V70Z" fill="#E5D6E4"/>
<path d="M59 76L49 71V68L59 73V76Z" fill="white"/>
<path d="M47 75L39 70V67L47 72V75Z" fill="#E5D6E4"/>
<path d="M77 91L49 75V72L77 88V91Z" fill="#E5D6E4"/>
<path d="M47 61L39 56V53L47 58V61Z" fill="#E5D6E4"/>
<path d="M76 76L49 61V58L76 73V76Z" fill="#4D3BFF"/>
<path d="M47 79L39 74V71L47 76V79Z" fill="#E5D6E4"/>
<path d="M53 82L49 80V77L53 79V82Z" fill="#0EDDAB"/>
<path d="M47 89L39 84V81L47 86V89Z" fill="#E5D6E4"/>
<path d="M56 93L49 89V86L56 90V93Z" fill="#F4CE2C"/>
<path d="M47 93L39 88V85L47 90V93Z" fill="#E5D6E4"/>
<path d="M66 105L49 95V92L66 102V105Z" fill="white"/>
<path d="M47 99L39 94V91L47 96V99Z" fill="#E5D6E4"/>
<path d="M76 116L49 100V97L76 113V116Z" fill="#E5D6E4"/>
<path d="M47 84L39 79V76L47 81V84Z" fill="#E5D6E4"/>
<path d="M83 105L49 85V82L83 102V105Z" fill="#4D3BFF"/>
<path d="M73 143L2 101C1.61667 100.72 1.21881 100.427 1 99.9999C0.781196 99.5729 1.00717 98.4822 1 97.9999V64.9999C1 64.057 1.28807 63.5902 2 63.9999L73 106C73.3817 106.281 73.7822 106.573 74 107C74.2178 107.427 73.9926 108.518 74 109V142C74 142.949 73.69 143.415 73 143Z" fill="#E9EAF2"/>
<path d="M22 100L18 91L12 100L19 104L24 108L37 115L28 91L22 100Z" fill="#0EDDAB"/>
<path d="M64.332 115.418C65.9956 114.434 65.5954 111.55 63.9691 108.663C62.3427 105.776 60.106 103.979 58.4425 104.963C56.7789 105.947 56.3184 109.34 57.9448 112.228C59.5711 115.115 62.6684 116.403 64.332 115.418Z" fill="#0EDDAB"/>
<path d="M131 53.9999L135 50.9999L143 56.9999C144.973 58.1537 147 56.312 147 53.9999V44.9999C146.933 43.7427 146.621 42.0904 146 40.9999C145.379 39.9095 144.041 39.6878 143 38.9999L92 6.99994C90.0274 5.84623 88 7.69253 88 9.99994V18.9999C88.0673 20.2572 88.3787 21.9095 89 22.9999C89.6213 24.0904 90.959 24.3121 92 24.9999L126 46.9999" fill="#B1B4C4"/>
<path d="M89 7L87 8L89 10L90 8L89 7Z" fill="#B1B4C4"/>
<path d="M131 53L129 54V52H131V53Z" fill="#B1B4C4"/>
<path d="M144 58C143.917 58.1775 145.912 57.1381 146 57C146.088 56.8619 143 55 143 55L144 58Z" fill="#B1B4C4"/>
<path d="M124 48L90 26C88.9601 25.3111 87.621 25.0906 87 24C86.379 22.9094 86.0684 21.2573 86 20V11C86 8.69184 88.028 6.86437 90 7.99997L141 40C142.04 40.6886 143.379 40.9093 144 42C144.621 43.0906 144.932 44.7425 145 46V55C145 57.3081 142.972 59.1402 141 58L133 52L129 55L124 48Z" fill="#E9EAF2"/>
<path d="M90 16L140 45V42L90 13V16Z" fill="#0EDDAB"/>
<path d="M107 32L140 51V48L107 29V32Z" fill="#0EDDAB"/>
<defs>
<linearGradient id="paint0_linear" x1="26" y1="85.419" x2="148.106" y2="85.419" gradientUnits="userSpaceOnUse">
<stop offset="0.21" stop-color="white" stop-opacity="0"/>
<stop offset="1" stop-color="white" stop-opacity="0.2"/>
</linearGradient>
</defs>
</svg>
