<svg width="110" height="171" viewBox="0 0 110 171" fill="none" xmlns="http://www.w3.org/2000/svg">
<path opacity="0.4" d="M75 170L24 141C23.7081 140.831 23.165 140.295 23 140C22.835 139.705 22.992 139.338 23 139C23.008 138.662 22.8213 138.287 23 138C23.1787 137.714 23.7004 138.155 24 138L30 134C30.2798 133.857 30.6858 133.993 31 134C31.3142 134.007 31.7271 133.844 32 134L85 165C85.2932 165.168 85.8341 164.705 86 165C86.1659 165.295 86.008 165.662 86 166C85.992 166.338 86.1797 166.713 86 167C85.8203 167.287 85.3008 167.846 85 168L80 170C79.1814 170.425 78.9217 171.021 78 171C77.0783 170.979 75.7985 170.461 75 170Z" fill="#D6D8E5"/>
<path d="M78 165L35 140C31.3017 137.868 28 131.926 28 127V6.00006C28.0139 1.06052 31.3063 -1.13671 35 1.00006L78 26.0001C81.6983 28.1368 85 34.0744 85 39.0001V160C85 164.93 81.6937 167.132 78 165Z" fill="#B1B4C4"/>
<path d="M79 167L82 165L79 160V167Z" fill="#B1B4C4"/>
<path d="M27 2L30 0L29 5L27 2Z" fill="#B1B4C4"/>
<path d="M75 166L32 141C28.3017 138.868 25 132.926 25 128V7C25.0185 2.05583 28.3063 -0.132143 32 2L75 27C78.6983 29.1368 82 35.0743 82 40V161C82 165.926 78.6983 168.137 75 166Z" fill="#616E84"/>
<path d="M82 41V162C82 166.935 78.6986 169.132 75 167L58 157L53 154L32 142C28.3014 139.863 25 133.926 25 129V7.99998C25.0185 3.06503 28.306 0.86782 32 2.99998L75 28C78.6986 30.1368 82 36.0697 82 41Z" fill="#20232D"/>
<path d="M79 40.0001V158C79 160.985 76.5965 161.497 74 160L72 159L64 154L61 153L59 152L56 150L47 145L44 143L42 142L34 137H33C30.3942 135.508 28 130.989 28 128V10.0001C28 7.01529 30.3942 6.50767 33 8.00005L50 17.0001V18.0001C50.0686 19.2642 50.3629 19.9035 51 21.0001C51.6371 22.0966 51.9322 23.3082 53 24.0001C55.0288 25.1551 57 24.3195 57 22.0001C57 22.0001 57 22.0139 57 22.0001L74 31.0001C76.5919 32.474 79 37.0153 79 40.0001Z" fill="white"/>
<path d="M54.8604 21.9697C55.3392 21.6945 55.2812 20.6951 54.7308 19.7375C54.1803 18.7799 53.3459 18.2266 52.867 18.5018C52.3882 18.7769 52.4462 19.7763 52.9967 20.734C53.5471 21.6916 54.3815 22.2449 54.8604 21.9697Z" fill="#2B303F"/>
<path opacity="0.1" d="M53 21C52.8748 20.9427 53.0747 21.0907 53 21C52.9254 20.9093 53.008 20.1045 53 20C53 19.8076 52.7628 19.9038 53 20C53.1262 20.0567 53.9247 19.9093 54 20C54.0753 20.0907 53.9922 20.8952 54 21C54 21.1924 53.2406 21.0962 53 21Z" fill="white"/>
<path d="M83 56C82.7615 56.2041 83 55.4535 83 55V50C83.002 49.7635 82.9252 50.2096 83 50C83.0748 49.7904 82.8686 49.1374 83 49C83.2385 48.7959 84 49.5238 84 50V55C83.998 55.2365 84.0748 54.7904 84 55C83.9252 55.2096 83.1314 55.8625 83 56Z" fill="#757B89"/>
<path d="M83 65C82.7615 65.1996 83 64.4763 83 64V59C83.0028 58.7637 82.9252 59.2095 83 59C83.0748 58.7905 82.8691 58.1383 83 58C83.2385 57.8004 84 58.5192 84 59V64C83.9977 64.2365 84.0748 63.7904 84 64C83.9252 64.2096 83.1313 64.8623 83 65Z" fill="#757B89"/>
<path d="M69 81L37 62C35.6084 61.1938 34 58.8674 34 57V19C34 17.1465 35.5991 16.1938 37 17L69 36C70.3916 36.8063 72 39.1373 72 41V79C72 80.8674 70.4009 81.8063 69 81Z" fill="#E9EAF2"/>
<path d="M69 130L37 111C35.6084 110.194 34 107.863 34 106V68C34 66.1463 35.5991 65.1936 37 66L69 85C70.3916 85.8063 72 88.1324 72 90V128C72 129.858 70.4009 130.806 69 130Z" fill="#E9EAF2"/>
<path d="M72 139V158L61 152L59 151L56 149L48 144L44 142L43 141L34 136V117C34 115.177 35.6032 114.207 37 115L69 134C70.3828 134.779 72 137.168 72 139Z" fill="#E9EAF2"/>
<path d="M64 49L59 41C58.8281 40.6968 59.3017 40.184 59 40C58.96 39.9768 58.0437 40.0159 58 40C57.9587 39.9697 58.0456 40.024 58 40H57C56.6553 39.8053 56.1864 39.7781 56 40C55.5994 40.453 54.997 39.5617 54 39C52.9962 38.4358 51.4948 38.0196 51 37C50.8305 36.5865 50.3876 36.237 50 36L49 35C48.9601 34.9754 49.0438 35.0176 49 35C48.8883 34.8987 48.1504 35.0265 48 35C47.8497 34.9735 48.1412 34.9433 48 35L43 38C42.5994 38.2265 42.5994 38.3297 43 39L46 43C46.1646 43.2997 45.709 43.8121 46 44C46.1037 44.0719 46.8733 43.9881 47 44C47.1268 44.012 46.8841 44.0512 47 44H48V54C48.0251 54.3423 47.8196 54.7051 48 55C48.1804 55.2949 48.7027 55.8152 49 56L58 61C58.5638 61.3171 59 60.6296 59 60V50L60 51C60.1699 51.302 60.6996 51.818 61 52C61.1037 52.0719 60.8733 51.9881 61 52C61.1268 52.0119 60.8841 52.0512 61 52L64 50C64.396 49.76 64.396 49.693 64 49Z" fill="#D9DAE2"/>
<path d="M60 96L45 87C44.5848 88.3582 44.0185 89.5788 44 91V101L51 105L53 98L54 107L61 111V101C60.9651 99.3311 60.3906 97.6222 60 96Z" fill="#D9DAE2"/>
<path d="M61 93L45 84V86L61 95V93Z" fill="#D9DAE2"/>
<path d="M64 154L61 152L59 151L56 149L48 144L44 142V138C44 137.515 44.5743 136.778 45 137C45.3279 137.221 44.8815 137.623 45 138H46C46.4828 139.509 46.6693 141.137 48 142C49.6983 142.979 51 141.963 51 140C51 139.4 51.5002 138.695 52 139C52.2467 139.152 52.8482 139.754 53 140L54 142L53 143L54 144L55 143L56 144L55 145V147L57 146L58 147L56 148L57 149L59 148C59.8603 149.264 60.6975 150.197 62 151V152C62.8909 152.583 63.6452 152.998 64 154Z" fill="#D9DAE2"/>
<path d="M103 105L72 87C71.4952 86.6608 70.6036 86.0822 70 86C69.3964 85.9179 68.5779 85.8082 68 86C67.7479 86.1023 68.2132 86.8317 68 87L62 90L66 95V125C66 129.317 68.7439 134.131 72 136L99 152L100 158C100.185 157.908 105.504 154.869 107 154C107.144 153.934 106.871 154.092 107 154C107.637 153.428 108.69 152.795 109 152C109.31 151.205 109.083 150.849 109 150V116C109.066 111.683 106.256 106.843 103 105Z" fill="#D9DAE2"/>
<path d="M97 156L66 139C62.7362 137.16 60 131.25 60 127V95.0001C60 90.7498 62.7495 89.16 66 91.0001L97 108C100.264 109.84 103 115.75 103 120V152C103 156.25 100.264 157.84 97 156Z" fill="#EFF0F9"/>
<path d="M69 107C69 105.131 69.9509 103.558 71 103C72.0491 102.442 73.3033 103.014 75 104C76.7174 104.994 77.992 106.289 79 108C80.0258 109.68 80.001 112.031 80 114V115C80 116.882 80.0491 118.455 79 119C77.9509 119.545 76.6967 118.986 75 118C73.2797 117.01 72.0042 115.714 71 114C69.9707 112.326 69.0039 109.966 69 108V107ZM72 111C72.0001 111.832 72.5925 112.275 73 113C73.376 113.715 74.3014 114.596 75 115C75.6735 115.389 75.5985 115.285 76 115C76.2248 114.777 76.8967 114.299 77 114C77.1033 113.701 77.0395 113.314 77 113V112C76.9995 111.171 76.3906 109.73 76 109C75.6284 108.278 75.7022 107.405 75 107C74.784 106.831 74.2722 107.03 74 107C73.7278 106.97 73.2473 106.882 73 107C72.5855 107.272 73 108.092 73 109L72 111ZM76 134L73 130L86 114L89 117L76 134ZM82 132C82 130.118 81.9379 128.545 83 128C84.0621 127.455 85.3163 128.027 87 129C88.7056 129.993 89.9871 131.304 91 133C92.0405 134.688 93.0078 137.016 93 139V140C93 141.856 92.0362 143.455 91 144C89.9638 144.545 88.7226 143.999 87 143C85.2725 142.009 84.0051 140.721 83 139C81.9798 137.341 82.0134 134.948 82 133V132ZM85 135C85.0169 135.825 85.5919 137.283 86 138C86.3745 138.722 86.3068 139.576 87 140C88.4636 140.856 90 139.882 90 138V136C89.9994 135.174 89.3987 134.723 89 134C88.6247 133.289 87.6917 132.409 87 132C86.7756 131.818 86.2875 132.03 86 132C85.7125 131.97 86.2571 131.868 86 132C85.7629 132.212 85.1085 132.701 85 133C84.8915 133.299 84.9539 133.685 85 134V135Z" fill="#E26161"/>
<path d="M38 26L16 13C15.6456 12.7598 15.4238 13.0581 15 13C14.5762 12.9418 14.4057 12.8641 14 13C13.8251 13.0765 13.1523 12.8846 13 13L9 16L12 20V40C12 43.0561 13.7233 46.6769 16 48L35 60L36 64L40 61C40.099 60.9528 40.9071 61.0583 41 61C41.4512 60.5981 41.7803 60.5636 42 60C42.2197 59.4363 42.0598 58.6021 42 58V34C42.0558 30.9439 40.286 27.323 38 26Z" fill="#D9DAE2"/>
<path d="M33 63L11 51C8.72293 49.6882 7 46.0299 7 43V20C7 16.97 8.72293 14.6882 11 16L33 29C35.2771 30.3117 37 33.97 37 37V60C37 63.0299 35.2771 64.3394 33 63Z" fill="#EFF0F9"/>
<path d="M23 29L25 37L32 42L27 45L28 53L23 46H17L18 39L13 31L20 34L23 29Z" fill="#F9CB07"/>
<path d="M38 93.9999L4 73.9999C3.82457 73.8779 3.21106 74.0294 3 73.9999C2.78894 73.9704 2.20171 73.9306 2 73.9999C1.90688 74.0379 2.07902 73.9373 2 73.9999L1 74.9999L2 75.9999C2 76.0918 2 75.8988 2 75.9999V117C2 118.534 2.84365 120.334 4 121L37 141L38 142L39 141C39.0742 140.967 38.935 141.049 39 141C39.2163 140.795 39.8951 140.28 40 140C40.1049 139.72 40.0278 139.298 40 139V97.9999C39.9863 96.4702 39.1427 94.666 38 93.9999Z" fill="#D6D8E5"/>
<path d="M37 142L2 122C0.845471 121.33 0 118.548 0 117V76C0 74.4565 0.826998 73.3299 2 74L37 94C38.1591 94.67 39 97.4519 39 99V140C39 141.525 38.1591 142.67 37 142Z" fill="#F5F7FC"/>
<path d="M5 118H6V82H5V118Z" fill="#DADCE5"/>
<path d="M7 99.9999C6.38966 99.7144 6.34798 99.4353 6 98.9999C5.65202 98.5646 5.01066 97.4914 5 96.9999V92.9999C5 92.0338 5.89134 91.5829 7 91.9999C7.60846 92.2864 7.65322 92.5647 8 92.9999C8.34678 93.4352 8.98907 94.509 9 94.9999V98.9999C9 99.9661 8.10236 100.421 7 99.9999Z" fill="#0EDDAB"/>
<path d="M15 117C14.3919 116.678 14.3472 116.488 14 116C13.6528 115.512 13.0126 114.55 13 114V109C13 107.918 13.8994 107.533 15 108C15.6087 108.32 15.6527 108.513 16 109C16.3473 109.487 16.9884 110.45 17 111V116C17 117.081 16.1069 117.467 15 117Z" fill="#0EDDAB"/>
<path d="M24 104C23.3913 103.714 23.3473 103.435 23 103C22.6527 102.565 22.0116 101.491 22 101V96.9999C22 96.0338 22.8931 95.5829 24 95.9999C24.6081 96.2873 24.6528 96.5641 25 96.9999C25.3472 97.4358 25.9874 98.5082 26 98.9999V103C26 103.966 25.1006 104.417 24 104Z" fill="#0EDDAB"/>
<path d="M32 135H34V99H32V135Z" fill="#DADCE5"/>
<path d="M33 121C32.3897 120.68 32.348 120.487 32 120C31.652 119.513 31.0107 118.55 31 118V113C31 111.918 31.8913 111.533 33 112C33.6085 112.321 33.6532 112.513 34 113C34.3468 113.487 34.9891 114.45 35 115V120C35 121.081 34.1024 121.471 33 121Z" fill="#0EDDAB"/>
</svg>
